<?xml version="1.0" standalone="no"?>
<!DOCTYPE svg PUBLIC "-//W3C//DTD SVG 20010904//EN"
 "http://www.w3.org/TR/2001/REC-SVG-20010904/DTD/svg10.dtd">
<svg version="1.0" xmlns="http://www.w3.org/2000/svg"
 width="724.000000pt" height="483.000000pt" viewBox="0 0 724.000000 483.000000"
 preserveAspectRatio="xMidYMid meet">

<g transform="translate(0.000000,483.000000) scale(0.100000,-0.100000)"
fill="#000000" stroke="none">
<path d="M153 4708 c10 -237 38 -653 47 -683 7 -25 8 -21 10 30 1 33 5 69 11
80 6 15 8 7 7 -30 -4 -122 4 -339 12 -320 5 11 9 60 9 108 1 60 4 86 12 82 6
-4 9 -36 8 -78 -1 -40 1 -103 4 -142 4 -38 12 -188 18 -333 10 -214 9 -268 -1
-288 -10 -18 -11 -29 -2 -49 18 -40 16 -391 -3 -444 -13 -37 -13 -43 0 -48 9
-3 21 -1 28 5 18 15 109 -3 239 -46 l113 -38 -1 -35 c-1 -22 -20 -66 -53 -122
l-52 -87 -45 39 c-47 41 -190 101 -242 101 -32 0 -72 -25 -72 -46 0 -8 -4 -14
-9 -14 -4 0 -13 -24 -19 -52 -9 -45 -8 -55 6 -65 9 -7 24 -13 34 -13 46 0 171
-92 208 -153 18 -29 16 -59 -8 -104 -9 -17 -8 -19 11 -19 19 1 22 -4 21 -32
-3 -52 -11 -65 -33 -52 -11 5 -29 10 -40 10 -15 0 -21 6 -21 23 0 57 -169 234
-238 248 -34 7 -112 -29 -112 -51 0 -9 15 -28 34 -41 51 -36 152 -150 191
-215 37 -61 44 -107 21 -133 -32 -37 -125 -180 -128 -197 -3 -17 6 -19 95 -22
86 -2 98 -1 103 15 4 10 24 56 46 103 22 47 56 121 75 164 20 44 71 138 116
210 44 72 102 172 130 221 28 50 52 92 53 94 2 2 10 -1 18 -8 11 -9 12 -20 4
-49 -13 -49 -92 -206 -132 -262 -40 -55 -138 -247 -160 -313 -9 -26 -26 -67
-37 -90 -38 -73 -120 -270 -115 -275 3 -2 26 1 53 6 160 36 194 42 219 42 60
0 70 8 81 63 21 103 44 173 78 240 19 37 35 78 35 90 0 12 7 35 15 51 8 15 15
35 15 42 0 8 4 22 9 32 5 9 12 25 15 35 3 10 10 16 14 13 12 -7 52 49 52 74 0
11 4 20 9 20 9 0 29 68 33 115 2 21 11 34 31 43 44 21 49 6 18 -56 -45 -91
-87 -212 -151 -437 -34 -122 -55 -214 -50 -219 5 -5 2 -18 -7 -32 -8 -13 -12
-27 -9 -32 3 -6 -1 -15 -9 -22 -8 -7 -17 -27 -21 -44 -6 -37 11 -116 26 -116
6 0 10 4 10 9 0 5 9 7 20 4 22 -6 55 21 45 37 -4 6 7 13 24 16 29 6 30 8 14
20 -17 12 -17 13 -1 19 10 4 80 10 155 14 l138 7 -79 8 c-69 7 -106 21 -106
40 0 3 17 7 38 7 l37 1 -50 13 c-27 7 -43 14 -35 15 11 1 9 4 -5 11 -13 6 71
7 224 3 235 -6 244 -6 236 12 -15 38 -17 54 -7 54 6 0 12 -6 15 -12 4 -14 31
31 57 94 8 20 37 53 65 76 28 22 57 52 64 65 9 17 25 27 49 32 20 4 48 15 63
26 15 10 33 19 41 19 17 0 38 20 38 36 0 8 -13 13 -32 12 -99 0 -198 26 -206
54 -5 20 -42 24 -160 19 -57 -3 -62 -1 -56 15 16 44 36 55 98 53 34 -1 83 4
109 11 37 10 57 10 86 1 37 -10 222 -25 326 -24 49 0 70 2 262 25 71 8 96 8
107 -1 10 -8 30 -10 59 -6 35 6 65 -1 163 -34 138 -47 154 -49 154 -21 0 26 5
25 34 -2 26 -25 43 -82 27 -92 -5 -4 -17 4 -25 16 -15 20 -16 21 -34 5 -10 -9
-26 -17 -34 -17 -9 0 -73 -30 -143 -66 -111 -57 -132 -64 -152 -55 -13 6 -37
11 -52 11 -25 0 -61 26 -61 44 0 4 -10 16 -22 27 l-23 18 24 1 c37 0 24 6 -72
34 l-88 26 -37 -20 c-35 -18 -35 -19 -12 -21 14 -1 44 -1 67 0 48 3 85 -13 77
-34 -4 -8 8 -22 30 -37 28 -18 36 -29 34 -48 -3 -22 -8 -25 -48 -26 -66 -1
-120 -14 -120 -30 0 -7 -9 -19 -21 -27 -14 -11 -17 -17 -9 -22 24 -15 -9 -20
-126 -20 l-119 0 -13 28 c-13 28 -26 34 -36 18 -4 -5 -29 -15 -57 -22 -38 -10
-54 -20 -65 -41 -8 -15 -23 -32 -34 -38 -14 -7 -20 -21 -20 -45 0 -18 -4 -36
-9 -39 -5 -3 -15 -30 -21 -58 -17 -71 -25 -85 -60 -103 -23 -12 -30 -23 -30
-44 0 -16 -8 -39 -19 -52 -23 -30 -33 -62 -33 -105 0 -30 -6 -37 -62 -73 -69
-45 -84 -50 -82 -23 1 18 -12 20 -287 37 l-118 7 6 -38 c4 -22 15 -69 26 -105
20 -69 21 -72 149 -184 36 -32 80 -74 98 -92 19 -19 49 -41 67 -49 19 -8 52
-38 77 -71 26 -34 61 -66 88 -80 25 -13 60 -33 78 -43 18 -11 37 -20 42 -20
18 0 45 54 65 134 19 74 23 81 45 81 33 0 54 -58 41 -115 -9 -39 -56 -108 -75
-109 -6 -1 -22 -13 -37 -27 -24 -23 -31 -25 -57 -16 -51 17 -56 6 -59 -130 -1
-68 1 -136 4 -151 l5 -28 358 3 c197 2 362 6 366 10 4 5 -1 17 -11 28 -17 19
-17 25 -6 53 27 67 61 193 59 217 -3 22 -9 26 -48 30 -32 4 -46 10 -48 22 -6
29 47 130 93 178 23 25 61 78 84 117 29 51 49 75 67 79 13 3 30 16 36 27 20
37 40 207 42 352 1 77 6 147 10 154 14 23 37 -47 37 -114 1 -56 11 -85 30 -85
4 0 7 15 7 33 0 71 49 254 67 250 6 -2 11 -74 13 -183 2 -149 0 -180 -12 -180
-7 0 -22 12 -31 27 l-18 27 -19 -24 c-17 -21 -17 -24 -2 -48 14 -22 15 -27 2
-36 -8 -6 -20 -31 -26 -56 l-12 -45 42 -39 c24 -21 37 -35 30 -31 -31 16 -70
-6 -106 -62 -24 -37 -33 -59 -26 -63 10 -6 0 -18 -81 -85 -13 -11 -28 -21 -33
-22 -12 -2 -26 -25 -26 -45 0 -12 7 -17 23 -17 12 1 85 -6 162 -15 252 -30
349 -38 440 -39 98 -1 217 19 194 33 -7 5 -17 6 -23 3 -5 -3 -6 -1 -2 5 3 6
-2 16 -11 22 -14 8 10 10 97 7 116 -4 154 -12 144 -28 -3 -5 9 -9 26 -9 18 0
29 4 25 10 -4 6 5 10 19 10 14 0 26 4 26 9 0 13 -53 21 -144 21 -44 0 -121 8
-171 17 -83 15 -116 17 -155 12 -39 -5 -150 2 -150 10 0 15 117 51 168 51 15
0 32 4 39 8 6 4 -30 7 -80 7 l-92 0 -3 33 c-3 28 0 32 20 32 32 0 168 32 168
40 0 7 -32 24 -62 34 -25 8 -23 36 2 36 11 0 20 4 20 9 0 13 -23 20 -53 14
-52 -10 -111 79 -75 115 9 9 8 15 -7 25 -16 12 -17 23 -12 78 8 84 15 101 38
94 14 -5 19 -1 19 14 0 12 4 21 8 21 4 0 14 16 21 35 19 54 39 45 46 -22 3
-32 10 -94 15 -137 6 -44 10 -101 10 -127 0 -44 23 -89 38 -75 2 3 0 54 -6
113 -6 59 -16 171 -23 248 l-11 140 34 75 c20 41 43 100 53 130 10 30 29 79
42 108 22 46 23 56 13 90 -7 20 -16 41 -21 47 -21 22 -2 26 104 22 l112 -4 7
-139 c4 -77 4 -174 1 -216 -3 -43 -3 -78 1 -78 3 0 12 15 20 32 8 18 15 27 15
20 1 -7 -5 -25 -13 -40 -22 -43 -59 -162 -52 -169 3 -4 13 2 20 13 8 10 18 16
22 12 10 -11 -16 -38 -37 -38 -12 0 -21 -10 -25 -27 -4 -16 -11 -34 -16 -40
-13 -16 42 -87 83 -108 37 -20 109 -95 109 -115 0 -13 -1 -13 -10 0 -6 10 -10
-42 -10 -155 0 -93 -3 -214 -7 -267 -5 -81 -8 -94 -19 -83 -8 7 -14 21 -14 29
0 20 -36 13 -98 -19 l-43 -23 86 -7 c47 -4 88 -11 91 -16 3 -5 20 -9 38 -9 26
0 35 6 45 27 8 18 9 29 1 37 -16 16 -14 259 3 254 9 -4 13 -48 15 -166 l2
-162 29 0 c16 0 36 -3 45 -6 11 -4 18 4 25 28 6 23 9 26 10 12 2 -36 23 -43
152 -54 68 -6 135 -13 149 -15 57 -11 410 -45 467 -45 59 0 63 2 69 25 3 14 4
37 2 50 -4 17 -1 25 8 25 8 0 14 7 14 15 0 9 7 18 15 21 8 4 15 14 15 23 0 9
4 21 8 27 4 5 16 35 27 68 10 32 31 71 46 87 15 17 33 46 40 67 6 20 24 60 40
87 26 48 80 184 99 250 4 17 8 22 9 13 2 -33 16 -18 48 49 51 110 51 109 -25
117 -48 5 -67 4 -73 -6 -6 -8 -2 -16 11 -22 10 -5 21 -15 25 -24 4 -12 3 -13
-10 -2 -8 7 -50 16 -92 20 -69 6 -71 8 -13 14 19 1 15 54 -6 77 -8 8 -14 22
-14 30 0 17 -30 44 -49 44 -8 0 -25 17 -38 38 l-24 38 23 -3 c21 -3 23 1 25
53 2 52 0 56 -17 52 -11 -3 -17 -9 -14 -14 3 -5 -2 -6 -10 -3 -23 9 -20 13 19
30 l36 15 -4 70 c-5 88 -14 98 -64 71 -100 -56 -176 -93 -180 -88 -3 2 2 29
11 59 18 61 21 107 7 107 -11 0 -21 -25 -21 -55 0 -40 -14 -36 -73 25 -45 45
-57 65 -58 91 -2 31 -2 31 -6 7 -2 -16 -8 -28 -12 -28 -4 0 -26 19 -49 43 -55
56 -57 90 -5 112 20 8 37 14 37 13 19 -38 26 -58 30 -83 2 -16 3 0 3 37 l-2
68 38 20 c20 11 39 20 42 20 6 0 33 -97 37 -135 4 -29 5 -28 17 15 10 33 10
49 2 60 -14 19 -18 29 -25 62 -5 19 -19 34 -49 50 -23 12 -46 21 -51 20 -22
-7 -37 22 -31 60 4 25 3 38 -4 38 -6 0 -11 -9 -11 -19 0 -11 -4 -23 -10 -26
-14 -9 -12 26 4 54 11 19 14 21 19 7 10 -26 27 -19 27 12 0 15 4 34 9 42 7 10
9 3 7 -22 -2 -27 0 -35 10 -31 23 8 16 57 -17 128 -20 44 -31 86 -33 123 -3
60 -19 112 -35 112 -5 0 -12 8 -14 18 -3 9 -5 0 -6 -21 -1 -34 -3 -37 -16 -23
-8 8 -15 27 -15 43 0 22 2 25 10 13 7 -12 10 -8 10 15 0 23 -3 27 -10 15 -7
-10 -10 -11 -10 -2 0 7 11 17 25 22 31 12 33 30 3 31 -17 1 -19 2 -5 6 18 5
25 43 7 43 -5 0 -7 -7 -4 -15 4 -11 2 -13 -9 -10 -8 4 -17 23 -20 43 -17 105
-38 140 -79 133 -5 0 -8 4 -8 9 0 7 -6 7 -20 0 -14 -8 -20 -8 -20 0 0 6 -4 8
-10 5 -5 -3 -10 -1 -10 5 0 6 -4 8 -10 5 -5 -3 -10 2 -10 13 0 25 -97 52 -111
31 -6 -10 -9 -11 -9 -1 0 6 -7 12 -15 12 -8 0 -15 -6 -15 -14 0 -7 -15 -17
-32 -23 -29 -8 -33 -13 -32 -41 1 -17 -1 -30 -5 -29 -3 1 -16 -7 -28 -18 -27
-23 -30 -55 -5 -56 10 0 12 -3 4 -6 -6 -2 -9 -10 -6 -15 4 -7 2 -8 -4 -4 -21
13 -49 -60 -86 -234 -2 -8 -7 -24 -12 -34 -6 -15 -4 -17 7 -11 12 8 12 6 1 -8
-8 -9 -12 -20 -9 -24 7 -11 -10 -53 -22 -53 -5 0 -11 9 -14 19 -6 25 -77 45
-125 36 -23 -4 -32 -3 -27 4 8 13 56 14 110 1 51 -12 55 -6 14 19 -43 26 -72
26 -125 0 -57 -27 -80 -68 -88 -154 l-7 -70 26 30 c14 17 32 44 39 62 8 17 23
36 33 41 35 19 93 25 123 12 33 -14 34 -15 21 -56 -5 -16 -12 -41 -15 -55 -5
-23 -12 -27 -56 -31 -29 -3 -59 -13 -70 -23 -11 -10 -23 -16 -26 -13 -2 3 21
29 53 57 32 29 48 48 36 44 -33 -12 -114 -93 -129 -130 -18 -42 -18 -78 1 -93
13 -10 15 -9 15 8 0 26 55 82 81 82 11 0 31 11 44 24 23 23 23 23 21 2 -1 -12
-27 -44 -57 -71 -30 -27 -45 -39 -33 -25 12 14 25 32 30 40 7 13 4 12 -16 -1
-14 -9 -32 -38 -42 -65 -9 -27 -22 -57 -28 -67 -15 -25 7 -127 28 -127 5 0 2
-27 -7 -61 l-16 -61 -7 38 c-14 72 -27 129 -37 169 -6 22 -11 65 -11 96 l0 56
-177 8 c-99 4 -184 12 -194 18 -27 17 -37 -2 -12 -23 18 -14 20 -19 8 -24 -8
-3 -15 -15 -15 -26 0 -27 -5 -26 -55 18 -23 20 -63 43 -88 50 -34 10 -47 20
-51 38 -5 18 -15 25 -44 30 l-38 6 -14 76 c-8 43 -19 77 -25 77 -5 0 -11 -33
-13 -72 -3 -69 -4 -73 -26 -73 -25 0 -53 44 -35 55 18 12 49 85 49 117 l0 33
-31 -47 c-30 -46 -59 -67 -43 -30 4 9 10 42 13 72 5 44 10 57 29 65 12 5 22
14 22 20 0 11 88 58 234 125 151 69 289 172 251 186 -20 8 -19 42 2 46 15 3
15 5 1 18 -8 9 -20 25 -27 38 -10 19 -9 22 9 22 31 0 24 16 -25 57 -45 37 -59
60 -30 49 31 -12 3 74 -37 114 -15 15 -30 40 -34 56 -4 16 -15 46 -26 67 -13
26 -17 48 -13 69 12 52 14 82 8 121 -4 27 -10 37 -24 37 -11 0 -19 5 -19 11 0
6 -7 8 -15 5 -11 -4 -23 6 -37 30 -26 45 -31 40 -12 -14 8 -26 12 -58 8 -81
-4 -26 -1 -46 9 -62 9 -13 29 -64 46 -114 55 -164 71 -210 81 -230 5 -11 12
-56 14 -100 3 -44 8 -90 12 -102 5 -18 1 -25 -21 -33 -19 -7 -26 -16 -23 -28
4 -15 -1 -16 -39 -13 -23 1 -43 -1 -43 -6 0 -14 -58 -35 -79 -28 -11 3 -29 0
-40 -6 -15 -10 -22 -10 -34 0 -10 7 -17 8 -21 2 -4 -5 -14 -10 -24 -11 -9 0
-38 -3 -64 -6 -50 -6 -57 0 -38 36 5 10 21 21 35 24 14 4 25 10 25 14 0 34
-32 147 -49 171 -12 16 -21 37 -21 46 0 10 -8 24 -17 31 -16 12 -15 13 13 14
31 0 64 -25 64 -48 0 -12 21 -17 50 -13 8 1 24 2 35 2 27 0 70 33 61 48 -4 6
-12 9 -17 5 -12 -7 -31 16 -55 64 -9 20 -27 38 -45 44 -34 12 -38 34 -8 43 19
6 20 9 6 22 -13 13 -21 13 -53 3 -44 -15 -69 -36 -54 -45 13 -8 13 -55 0 -55
-5 0 -10 -8 -11 -17 0 -13 -4 -11 -12 7 -19 41 -51 67 -73 60 -26 -10 -44 -2
-37 16 3 8 -1 14 -11 14 -12 0 -15 -8 -12 -31 4 -32 -17 -50 -36 -31 -13 13
-48 3 -48 -13 0 -8 -8 -11 -20 -8 -11 3 -26 1 -33 -4 -6 -6 -24 -13 -39 -17
-30 -7 -36 -24 -16 -44 17 -17 6 -23 -55 -25 -38 -2 -61 -8 -69 -19 -8 -10
-26 -15 -50 -15 -32 2 -42 9 -80 58 -24 31 -50 70 -59 87 -14 24 -22 29 -43
25 -19 -4 -26 -1 -26 11 0 9 -7 19 -15 22 -19 8 -51 73 -47 97 2 9 -6 29 -17
43 -12 15 -21 32 -21 39 0 8 -8 11 -18 8 -12 -3 -22 3 -29 19 l-12 23 0 -22
c-1 -34 -18 -28 -41 15 -12 20 -18 28 -14 17 15 -43 16 -66 4 -80 -20 -24 15
-89 57 -104 46 -17 83 -53 83 -83 0 -27 27 -89 43 -100 6 -3 17 -4 25 0 12 4
14 0 9 -20 -5 -18 -2 -28 8 -32 8 -3 15 -15 15 -26 0 -11 5 -20 10 -20 6 0 10
5 10 10 0 6 6 10 13 10 18 0 97 -43 97 -53 0 -5 -22 -6 -50 -2 -27 4 -50 5
-50 3 0 -2 9 -35 20 -73 11 -38 20 -71 20 -73 0 -1 -17 0 -37 4 -21 3 -51 1
-67 -6 -25 -9 -27 -8 -17 3 15 19 5 43 -42 100 -26 32 -42 44 -47 36 -12 -18
-31 -6 -46 31 -14 32 -14 33 4 17 27 -25 34 -21 27 16 l-7 32 25 -30 c51 -61
40 -4 -15 82 -15 23 -33 45 -40 49 -6 4 -2 -6 10 -23 21 -30 21 -31 2 -36 -11
-3 -20 -13 -20 -22 0 -9 -4 -13 -10 -10 -14 9 -12 35 3 33 16 -4 10 32 -9 52
-12 12 -14 11 -14 -13 0 -19 -4 -25 -15 -21 -18 7 -12 -12 16 -61 27 -45 34
-108 15 -126 -41 -38 -48 -42 -55 -31 -3 6 -18 13 -33 17 -21 5 -27 3 -32 -13
-4 -11 -6 -24 -5 -28 6 -34 -13 -46 -50 -33 -22 9 -22 10 -7 34 32 48 17 66
-39 45 -23 -9 -24 -12 -14 -31 9 -17 8 -23 -2 -30 -8 -5 -16 -9 -19 -9 -8 0
-4 -139 3 -147 12 -11 31 15 32 44 0 18 6 29 20 33 11 3 32 13 47 23 76 52
142 -4 86 -73 -13 -15 -29 -36 -36 -46 -8 -12 -11 -14 -9 -4 3 9 -1 24 -8 33
-11 16 -16 13 -49 -33 -40 -56 -59 -68 -80 -51 -8 7 -25 9 -39 6 -31 -8 -42 7
-39 53 2 19 -4 45 -12 57 -16 25 -11 45 45 172 11 24 19 62 19 86 0 24 7 52
15 63 8 10 15 35 15 55 0 28 -6 40 -25 53 -14 9 -25 23 -25 30 0 9 -15 15 -41
18 -37 3 -43 0 -71 -34 -19 -25 -38 -38 -54 -38 -25 0 -47 -26 -59 -70 -4 -14
-13 -38 -20 -55 -101 -230 -124 -312 -126 -449 -1 -99 -3 -107 -26 -131 -26
-25 -57 -33 -67 -16 -3 5 8 36 25 69 27 52 33 76 39 169 4 59 13 121 19 136
20 51 15 64 -31 75 -23 6 -47 7 -53 3 -9 -7 -85 -31 -99 -31 -3 0 -6 40 -6 89
0 84 -2 91 -25 110 -32 24 -107 41 -185 41 -73 0 -89 -6 -104 -40 -9 -22 -11
0 -12 119 0 80 3 126 6 101 l6 -45 8 67 c4 37 4 78 -1 90 -6 19 -8 16 -13 -22
-3 -25 -9 50 -13 165 -4 116 -9 231 -11 258 -2 26 0 47 3 47 17 0 30 -69 36
-195 4 -77 10 -158 14 -180 6 -35 8 -30 14 44 4 46 8 86 10 87 2 2 52 7 111
11 59 3 104 9 99 12 -15 11 -15 51 1 51 9 0 16 -12 19 -32 3 -28 4 -26 5 11 1
24 9 70 18 104 12 46 14 84 9 156 -4 53 -10 100 -13 106 -12 17 -22 307 -22
583 l0 262 -251 0 -252 0 6 -122z m311 -268 c5 -90 5 -93 -9 -61 -11 24 -15
66 -14 150 1 98 3 107 9 61 4 -30 10 -98 14 -150z m-102 -412 c3 -54 1 -65 -9
-56 -9 7 -13 39 -12 107 1 75 3 87 9 56 4 -22 10 -70 12 -107z m76 -325 c9
-18 -5 -129 -15 -119 -8 8 -9 136 -1 136 4 0 11 -8 16 -17z m772 -597 c0 -3
-4 -8 -10 -11 -5 -3 -10 -1 -10 4 0 6 5 11 10 11 6 0 10 -2 10 -4z m591 -31
c-1 -15 -24 -12 -29 3 -3 9 2 13 12 10 10 -1 17 -7 17 -13z m19 -44 c0 -14
-18 -23 -30 -16 -6 4 -8 11 -5 16 8 12 35 12 35 0z m-1452 -103 l-3 -63 48 -3
c76 -4 250 -40 259 -54 8 -13 9 -158 1 -158 -2 0 -16 9 -31 20 -37 27 -213 72
-270 69 -26 -1 -49 -1 -51 2 -7 7 37 249 45 249 3 0 3 -28 2 -62z m3377 -48
c-3 -5 -10 -10 -16 -10 -5 0 -9 5 -9 10 0 6 7 10 16 10 8 0 12 -4 9 -10z
m-2125 -56 c0 -13 -4 -24 -9 -24 -5 0 -11 -9 -14 -21 -3 -12 -12 -19 -19 -17
-14 5 -13 38 4 81 8 22 13 25 24 16 8 -6 14 -22 14 -35z m-104 7 c-10 -16 -59
-14 -53 2 2 6 9 12 15 12 5 0 14 3 18 8 11 10 28 -9 20 -22z m361 -25 c-4 -10
-1 -13 9 -9 10 4 14 -2 14 -21 0 -14 5 -26 11 -26 8 0 10 -15 6 -46 -3 -29 0
-49 8 -57 8 -8 11 -33 7 -77 -4 -59 -1 -74 28 -136 18 -38 35 -87 37 -109 3
-22 10 -48 14 -57 12 -22 -3 -31 -33 -19 -12 6 -17 10 -10 10 6 1 12 6 12 11
0 6 -10 8 -23 4 l-24 -5 -7 135 c-5 101 -13 158 -32 223 -48 160 -52 193 -23
193 6 0 9 -7 6 -14z m-288 -82 c-14 -18 -49 -18 -49 -1 0 24 21 37 42 26 15
-8 17 -13 7 -25z m134 -29 c5 -16 10 -80 10 -141 2 -93 -1 -116 -18 -147 -11
-20 -27 -37 -36 -37 -9 0 -36 -13 -60 -30 -41 -28 -50 -30 -141 -30 -92 0 -98
1 -98 21 0 11 5 17 10 14 6 -3 10 3 10 14 0 33 -16 33 -70 -4 -53 -36 -70 -37
-70 -6 0 23 19 41 45 41 11 0 33 14 48 30 16 17 33 30 39 30 6 0 7 9 3 23 -10
34 -8 58 9 76 9 10 16 24 16 32 0 22 95 107 127 114 15 3 48 12 73 20 67 20
92 16 103 -20z m2412 -250 c4 -17 8 -57 10 -90 2 -33 1 -49 -2 -35 -3 14 -8
30 -13 35 -13 17 -21 71 -14 99 8 32 11 30 19 -9z m-2997 -72 c-25 -46 -58
-73 -58 -49 0 25 19 66 30 66 6 0 18 7 27 15 25 25 25 12 1 -32z m2438 -44
c-8 -24 -14 -37 -15 -28 -1 19 20 82 25 76 2 -2 -2 -23 -10 -48z m-2381 1 c3
-5 1 -10 -4 -10 -6 0 -11 5 -11 10 0 6 2 10 4 10 3 0 8 -4 11 -10z m2662 -82
c-3 -7 -5 -2 -5 12 0 14 2 19 5 13 2 -7 2 -19 0 -25z m-1909 -30 c-3 -33 -3
-33 -53 -29 -27 1 -52 5 -55 8 -11 10 56 53 83 53 26 0 28 -3 25 -32z m2171
-80 c-4 -56 -12 -77 -30 -78 -3 0 -4 14 -1 30 2 17 8 30 13 30 5 0 9 18 9 40
0 22 3 40 6 40 3 0 4 -28 3 -62z m-229 -48 c0 -30 -7 -93 -15 -140 -8 -47 -15
-103 -15 -125 0 -30 -3 -36 -10 -25 -7 11 -10 5 -10 -24 0 -37 6 -76 29 -196
l9 -45 2 60 2 60 10 -50 c7 -40 6 -55 -6 -77 -12 -20 -18 -68 -23 -183 -7
-175 -18 -185 -25 -23 -4 83 -2 108 9 112 9 4 13 21 12 53 l-2 48 -7 -40 c-5
-30 -8 -15 -9 58 0 54 -6 141 -13 194 -12 96 -6 163 34 372 12 67 28 51 28
-29z m-100 -4 c0 -54 -15 -35 -16 21 -1 29 2 40 7 32 5 -8 9 -32 9 -53z m380
3 c0 -14 -17 -10 -23 5 -4 10 -1 13 9 9 7 -3 14 -9 14 -14z m-2520 -34 c10
-13 7 -17 -23 -30 -51 -21 -113 -20 -126 3 -8 15 -3 19 37 28 67 16 98 16 112
-1z m138 -12 c-10 -2 -26 -2 -35 0 -10 3 -2 5 17 5 19 0 27 -2 18 -5z m2099
-255 c-2 -18 -4 -6 -4 27 0 33 2 48 4 33 2 -15 2 -42 0 -60z m-943 56 c54 -9
76 -25 76 -54 0 -14 5 -31 12 -38 14 -14 -3 -37 -46 -59 -27 -14 -31 -14 -43
3 -7 10 -13 27 -13 39 0 26 -15 45 -58 74 -27 19 -31 26 -21 38 8 9 21 12 37
8 13 -3 38 -8 56 -11z m-1297 0 c-3 -3 -12 -4 -19 -1 -8 3 -5 6 6 6 11 1 17
-2 13 -5z m53 -29 c7 -8 8 -15 2 -15 -5 0 -15 7 -22 15 -7 8 -8 15 -2 15 5 0
15 -7 22 -15z m1109 -13 c5 -10 26 -36 46 -57 27 -30 35 -47 33 -70 -3 -25 -8
-30 -38 -36 -19 -4 -37 -6 -41 -3 -3 2 -3 22 1 44 6 35 4 46 -16 70 -27 31
-32 70 -9 70 8 0 19 -8 24 -18z m-72 -59 c-3 -3 -11 -2 -17 2 -9 6 -9 10 1 16
14 8 27 -7 16 -18z m-79 -133 l-3 -93 -80 -48 c-82 -49 -105 -58 -105 -37 0
20 91 95 131 107 l39 12 0 86 c0 60 3 84 10 77 7 -7 10 -49 8 -104z m1512 23
c0 -26 -16 -12 -18 15 -1 21 0 23 8 12 5 -8 10 -21 10 -27z m-744 -115 c2 -78
1 -85 -6 -43 -20 113 -23 161 -10 148 8 -7 14 -47 16 -105z m331 60 c-3 -8 -6
-5 -6 6 -1 11 2 17 5 13 3 -3 4 -12 1 -19z m-957 -53 c-7 -8 -20 -15 -29 -15
-12 0 -10 5 9 20 28 21 39 18 20 -5z m587 -27 c-3 -8 -6 -5 -6 6 -1 11 2 17 5
13 3 -3 4 -12 1 -19z m-634 -25 c32 -4 37 -9 37 -32 0 -47 -12 -54 -73 -47
-54 7 -55 8 -60 44 -6 48 0 55 32 47 14 -4 43 -9 64 -12z m1427 -8 c7 -9 8
-15 2 -15 -5 0 -12 7 -16 15 -3 8 -4 15 -2 15 2 0 9 -7 16 -15z m-273 -37 c-3
-7 -5 -2 -5 12 0 14 2 19 5 13 2 -7 2 -19 0 -25z m-210 -10 c-3 -8 -6 -5 -6 6
-1 11 2 17 5 13 3 -3 4 -12 1 -19z m-918 -74 c6 -6 -33 -128 -70 -223 -28 -70
-28 -74 -12 -87 10 -8 30 -12 45 -10 22 4 27 1 30 -17 7 -44 -3 -67 -28 -67
-13 0 -24 -5 -24 -12 0 -6 -13 1 -30 17 l-30 29 0 194 0 194 58 -7 c31 -4 59
-9 61 -11z m754 1 c-3 -9 -8 -14 -10 -11 -3 3 -2 9 2 15 9 16 15 13 8 -4z
m834 -47 c-3 -7 -5 -2 -5 12 0 14 2 19 5 13 2 -7 2 -19 0 -25z m-1004 8 c3 -8
-6 -24 -20 -37 l-25 -24 19 37 c21 43 19 42 26 24z m95 -52 c-4 -35 7 -48 15
-16 3 11 5 9 6 -8 1 -17 7 -26 19 -26 71 -3 200 -18 212 -25 8 -4 -41 -5 -110
-2 -82 4 -133 2 -146 -5 -19 -10 -20 -8 -16 51 4 70 11 100 19 79 3 -7 3 -29
1 -48z m886 10 c3 -8 2 -12 -4 -9 -6 3 -10 10 -10 16 0 14 7 11 14 -7z m48
-74 c-7 -42 -10 -45 -42 -51 -44 -7 -381 1 -397 10 -6 3 87 4 208 2 l219 -3 0
30 c0 16 3 45 7 63 11 49 15 5 5 -51z m-862 40 c0 -11 -4 -20 -9 -20 -5 0 -7
9 -4 20 3 11 7 20 9 20 2 0 4 -9 4 -20z m40 -92 c0 -13 -8 -18 -30 -18 -28 0
-40 17 -24 33 14 14 54 3 54 -15z m1155 -48 c4 -6 -7 -10 -24 -10 -17 0 -31 5
-31 10 0 6 11 10 24 10 14 0 28 -4 31 -10z m-2135 -155 c0 -8 -7 -15 -15 -15
-26 0 -18 20 13 29 1 1 2 -6 2 -14z m-1103 -88 c6 -23 17 -56 24 -74 11 -26
10 -34 -1 -47 -21 -27 -52 35 -56 111 -3 73 16 79 33 10z m1239 7 c15 -4 24
-13 24 -25 0 -20 -15 -26 -25 -9 -3 6 -17 10 -31 10 -18 0 -24 5 -24 21 0 15
4 19 16 15 9 -3 27 -9 40 -12z m114 -44 c0 -5 12 -16 28 -24 31 -17 17 -21
-22 -6 -25 9 -37 40 -16 40 6 0 10 -4 10 -10z m-90 -175 c0 -14 -4 -25 -9 -25
-5 0 -17 -3 -27 -7 -12 -4 -15 -2 -12 8 3 8 11 13 17 11 7 -1 10 2 6 8 -7 12
2 30 16 30 5 0 9 -11 9 -25z m885 15 c8 -13 -15 -13 -35 0 -12 8 -11 10 7 10
12 0 25 -4 28 -10z m-1105 -20 c0 -5 9 -10 20 -10 11 0 20 -4 20 -10 0 -19
-40 -30 -107 -29 -37 0 -61 3 -53 6 8 4 23 17 33 30 13 16 29 23 53 23 19 0
34 -4 34 -10z m1288 -23 c60 3 72 -3 52 -23 -7 -7 -3 -23 10 -48 19 -38 19
-56 -1 -56 -6 0 -8 4 -4 9 11 19 -31 16 -47 -4 -16 -19 -17 -18 -15 40 l2 59
-49 8 c-27 4 -54 12 -60 18 -8 9 -3 9 19 3 17 -4 58 -7 93 -6z m147 3 c3 -5 1
-10 -4 -10 -6 0 -11 5 -11 10 0 6 2 10 4 10 3 0 8 -4 11 -10z m65 -34 c0 -4
-9 -1 -19 6 -11 7 -17 16 -15 20 5 8 34 -15 34 -26z m-1477 -53 c-7 -2 -19 -2
-25 0 -7 3 -2 5 12 5 14 0 19 -2 13 -5z m-150 -20 c-7 -2 -19 -2 -25 0 -7 3
-2 5 12 5 14 0 19 -2 13 -5z m1486 -46 c-2 -2 -21 -13 -41 -25 -35 -20 -37
-20 -26 -2 7 11 19 21 28 24 19 5 45 7 39 3z"/>
<path d="M1426 2561 c-3 -4 -4 -21 -4 -39 1 -27 4 -30 19 -22 19 11 35 47 25
58 -10 9 -35 11 -40 3z"/>
<path d="M1417 2443 c-4 -3 -7 -22 -7 -42 0 -41 15 -32 25 17 6 29 -2 41 -18
25z"/>
<path d="M3868 2065 c-4 -44 -10 -91 -12 -105 -3 -14 1 -5 9 20 9 26 14 70 13
105 l-3 60 -7 -80z"/>
<path d="M3841 1904 c0 -11 3 -14 6 -6 3 7 2 16 -1 19 -3 4 -6 -2 -5 -13z"/>
<path d="M1115 4738 c23 -321 22 -318 24 -105 1 172 -1 197 -15 197 -13 0 -14
-13 -9 -92z"/>
<path d="M1191 4748 c1 -46 5 -110 9 -143 6 -48 7 -32 9 83 0 89 -3 142 -9
142 -6 0 -10 -33 -9 -82z"/>
<path d="M1314 4643 c7 -216 15 -303 27 -303 10 0 15 146 11 338 -3 146 -4
152 -24 152 -21 0 -21 -2 -14 -187z"/>
<path d="M2158 4723 c2 -60 7 -205 11 -323 l8 -215 1 323 c2 254 -1 322 -11
322 -9 0 -12 -26 -9 -107z"/>
<path d="M6775 4721 c-7 -12 12 -24 25 -16 11 7 4 25 -10 25 -5 0 -11 -4 -15
-9z"/>
<path d="M800 4667 c0 -50 17 -59 68 -36 66 31 57 49 -30 65 -38 6 -38 6 -38
-29z"/>
<path d="M6680 4631 c0 -28 -4 -53 -10 -56 -17 -10 -11 -25 10 -25 18 0 20 7
20 65 0 37 -4 65 -10 65 -5 0 -10 -22 -10 -49z"/>
<path d="M6736 4657 c-3 -12 -6 -74 -6 -137 0 -63 -7 -252 -15 -420 -8 -168
-21 -456 -30 -640 -15 -331 -27 -428 -46 -399 -6 8 -8 70 -5 144 4 122 4 125
-5 40 -5 -49 -13 -146 -18 -213 -5 -68 -13 -128 -19 -134 -8 -8 -32 -4 -84 15
-134 47 -216 61 -250 43 -15 -8 -31 -10 -40 -5 -10 6 -22 1 -38 -16 -13 -14
-29 -25 -37 -25 -8 0 -13 -13 -13 -35 0 -19 -5 -35 -11 -35 -6 0 -9 7 -6 15 4
8 2 17 -3 20 -5 3 -13 -12 -16 -35 -4 -22 -11 -40 -17 -40 -5 0 -3 -7 4 -17
13 -15 12 -15 -9 -4 -23 12 -24 12 -16 -21 4 -18 7 -40 7 -48 0 -8 7 -20 15
-26 11 -8 12 -15 4 -30 -7 -14 -8 -34 -1 -64 5 -23 14 -88 19 -144 6 -56 17
-125 27 -154 17 -57 79 -132 107 -132 11 0 18 -13 22 -41 6 -36 10 -40 30 -36
15 3 25 -1 27 -12 4 -13 5 -13 6 2 1 24 21 22 21 -3 0 -13 -7 -20 -20 -20 -11
0 -20 5 -20 10 0 6 -4 10 -10 10 -5 0 -10 -6 -10 -13 0 -8 -10 -19 -22 -25
-13 -6 -17 -11 -10 -11 6 -1 12 -11 11 -23 0 -22 -1 -22 -9 -3 -5 11 -9 15 -9
8 -1 -6 -4 -19 -7 -27 -5 -12 -2 -15 11 -10 12 5 16 3 14 -5 -3 -7 -9 -12 -14
-12 -25 0 -42 -31 -38 -68 3 -22 0 -42 -6 -46 -7 -4 -11 11 -11 46 0 29 -3 49
-7 45 -9 -9 -9 -13 -11 -88 -1 -32 -6 -58 -11 -58 -9 0 -8 40 2 126 4 29 2 31
-29 31 -34 0 -54 -25 -54 -67 0 -10 -4 -22 -10 -25 -14 -9 -12 16 5 64 8 22
10 41 5 41 -4 0 -16 -24 -26 -52 -9 -29 -19 -47 -22 -40 -2 7 3 32 12 57 8 25
11 45 7 45 -9 0 -27 -39 -36 -81 -5 -20 -13 -26 -31 -26 -19 0 -24 3 -18 16
14 35 32 111 24 106 -4 -3 -11 -17 -14 -32 -11 -45 -28 -83 -37 -83 -5 0 -2
18 7 40 9 23 14 43 11 46 -3 3 -13 -15 -22 -40 -10 -25 -22 -46 -26 -46 -5 0
-2 16 6 36 20 47 19 51 -5 29 -10 -9 -19 -20 -18 -24 3 -27 -5 -41 -22 -41
-26 0 -28 40 -2 41 10 0 12 3 5 6 -7 2 -13 10 -13 16 0 6 6 18 13 27 6 9 -1 3
-17 -14 l-29 -30 5 27 c3 14 1 24 -3 21 -5 -3 -9 -11 -9 -19 0 -8 -5 -17 -12
-21 -8 -5 -9 -2 -5 9 3 9 2 19 -3 22 -6 4 -10 2 -10 -3 0 -15 -33 -24 -40 -11
-6 8 -9 8 -14 0 -4 -6 -2 -11 4 -11 7 0 10 -7 6 -15 -3 -8 -1 -15 4 -15 6 0
10 -8 10 -17 0 -10 8 -27 17 -38 13 -16 15 -17 10 -2 -4 9 -2 17 3 17 15 0 12
-37 -2 -43 -10 -4 -10 -7 0 -15 11 -7 11 -12 -2 -24 -11 -12 -12 -18 -3 -28 9
-10 9 -11 0 -6 -9 5 -11 -1 -7 -23 7 -32 -10 -66 -27 -55 -5 3 -6 -1 -3 -9 3
-8 0 -18 -7 -23 -7 -4 -15 -2 -17 4 -2 7 -9 9 -15 5 -7 -3 -1 6 12 20 16 18
27 23 32 16 5 -8 8 -8 13 0 4 6 2 11 -4 11 -8 0 -8 6 0 20 7 12 7 20 1 20 -5
0 -13 9 -16 21 l-7 21 -23 -22 c-22 -21 -52 -20 -40 1 4 5 1 17 -5 26 -10 15
-11 15 -6 1 2 -9 2 -19 -1 -22 -8 -7 -33 61 -33 88 0 11 -3 17 -6 14 -8 -9 -9
-81 -1 -95 5 -7 -6 -16 -30 -23 -44 -14 -68 -32 -35 -25 12 2 22 0 22 -6 0 -5
9 -9 21 -9 13 0 18 -4 13 -12 -5 -8 0 -9 14 -6 12 4 22 2 22 -3 0 -5 -6 -9
-12 -9 -10 0 -10 -2 0 -9 11 -7 10 -10 -3 -15 -35 -13 -47 -7 -41 19 4 14 2
25 -3 25 -8 0 -22 -61 -16 -68 2 -2 19 1 39 6 33 10 36 9 35 -11 0 -12 -3 -16
-6 -9 -7 19 -19 14 -19 -8 0 -11 7 -20 16 -21 8 0 4 -5 -9 -10 -14 -5 -32 -7
-40 -3 -14 5 -13 8 4 15 16 8 15 8 -8 4 -19 -4 -29 -1 -33 10 -4 8 -12 15 -20
15 -8 0 -14 3 -14 8 0 4 -13 16 -29 27 -16 10 -27 23 -25 27 10 16 -29 7 -42
-9 -17 -23 -17 -33 0 -33 19 0 3 -80 -20 -97 -23 -17 -34 -16 -34 2 0 8 -4 15
-10 15 -24 0 -33 43 -20 99 7 31 17 60 22 65 4 6 8 12 8 15 0 10 -59 10 -65 1
-8 -13 -31 -12 -76 0 -49 14 -55 40 -19 85 15 19 33 58 40 85 7 28 16 50 21
50 5 0 9 9 9 20 0 11 5 20 10 20 6 0 10 -6 10 -12 0 -9 4 -8 10 2 13 20 13 33
0 25 -5 -3 -10 3 -10 13 0 11 -7 23 -16 26 -11 4 -20 -6 -34 -37 -10 -23 -28
-47 -39 -54 -11 -7 -33 -41 -50 -75 l-30 -63 -48 0 c-66 0 -70 -13 -79 -223
-4 -95 -11 -175 -15 -178 -14 -8 -10 -34 7 -51 23 -23 13 -56 -21 -71 -31 -14
-55 -51 -55 -84 0 -10 -3 -18 -8 -18 -4 0 -16 -30 -26 -67 -19 -66 -82 -228
-96 -248 -5 -5 -31 -55 -60 -110 -29 -55 -57 -106 -62 -113 -6 -7 -8 -30 -5
-52 4 -32 1 -41 -16 -53 -16 -10 -22 -29 -28 -87 -9 -79 -25 -130 -41 -130 -7
0 -8 -16 -4 -40 3 -23 2 -40 -3 -40 -5 0 -24 -12 -41 -27 -28 -23 -31 -30 -25
-61 4 -23 2 -39 -8 -51 -18 -20 -43 -88 -35 -96 2 -3 189 -4 414 -3 l409 3
-55 19 c-101 34 -129 50 -134 72 -11 43 -33 54 -107 54 -61 0 -69 2 -69 19 0
20 13 24 135 36 34 3 55 2 47 -3 -21 -15 82 -35 243 -47 39 -3 81 -7 94 -10
13 -2 94 -12 180 -21 86 -8 157 -17 158 -18 1 -1 -3 -12 -10 -26 -8 -15 -29
-29 -61 -39 -55 -18 -73 -41 -32 -41 14 0 26 4 26 9 0 13 137 50 212 57 l67 7
15 -37 15 -36 615 0 616 0 0 1107 c0 1000 -2 1108 -16 1124 -16 18 -11 44 7
34 5 -4 9 48 9 128 l0 134 -277 8 c-153 4 -279 8 -279 8 -5 5 21 123 28 127 6
5 6 43 -1 96 0 6 -23 23 -51 38 -57 31 -70 46 -41 46 12 0 21 6 21 14 0 16 64
31 83 19 6 -4 21 -6 32 -5 11 1 85 -6 165 -17 l145 -20 22 24 c20 20 95 45
138 45 8 0 15 9 15 20 0 25 -32 27 -74 5 -15 -8 -53 -15 -83 -15 -52 0 -55 1
-49 23 3 12 6 26 6 31 0 5 45 7 100 4 l100 -5 0 854 0 853 -249 0 c-248 -1
-249 -1 -255 -23z m-22 -2188 c2 -19 1 -25 -1 -14 -2 11 -11 25 -20 32 -8 6
-12 17 -8 23 11 18 25 -2 29 -41z m-81 -271 c-2 -46 0 -89 5 -96 5 -7 24 -14
41 -14 25 -1 35 -7 42 -25 7 -20 15 -23 63 -23 92 0 114 -8 121 -44 13 -64 15
-66 75 -83 45 -12 57 -19 52 -31 -3 -10 -1 -13 7 -8 16 10 64 -22 58 -39 -3
-7 0 -24 7 -37 11 -20 11 -25 0 -25 -7 0 -13 3 -12 6 2 23 -6 34 -37 47 -20 8
-38 21 -42 29 -3 8 -10 15 -15 15 -5 0 2 -14 16 -31 31 -37 34 -54 6 -39 -11
6 -20 15 -20 20 0 6 -4 10 -10 10 -5 0 -7 -7 -3 -15 3 -9 2 -15 -3 -14 -5 1
-11 0 -14 -1 -20 -7 -40 -7 -40 1 0 6 -5 7 -12 3 -7 -4 -8 -3 -4 5 9 14 -3 53
-14 46 -5 -3 -7 4 -5 15 2 11 0 18 -6 15 -5 -4 -13 5 -19 20 -11 28 -45 45
-92 45 -30 0 -30 -1 -15 -18 17 -19 24 -72 9 -72 -4 0 -14 16 -21 35 -7 19
-19 35 -27 35 -8 0 -15 6 -15 13 -1 6 -5 -1 -9 -18 -6 -25 -8 -26 -9 -7 0 13
-5 20 -11 17 -5 -3 -10 -4 -10 -1 0 2 -3 11 -6 20 -5 13 1 16 27 16 23 0 30 3
20 9 -7 5 -10 14 -7 20 5 7 -1 11 -16 10 -13 0 -17 -3 -10 -6 17 -7 15 -23 -3
-23 -9 0 -15 9 -15 25 0 22 3 25 25 19 15 -4 25 -2 25 5 0 6 -11 11 -25 11
-17 0 -25 6 -26 18 0 14 -2 14 -9 -3 -7 -17 -9 -17 -9 -2 -1 9 -6 17 -12 17
-5 0 -8 -4 -4 -9 3 -5 1 -12 -5 -16 -17 -11 -16 145 1 203 6 17 12 32 13 32 1
0 1 -37 -1 -82z m-263 -128 c0 -11 -2 -20 -4 -20 -2 0 -6 9 -9 20 -3 11 -1 20
4 20 5 0 9 -9 9 -20z m37 0 c1 -11 -2 -20 -8 -20 -5 0 -9 9 -9 20 0 11 4 20 8
20 4 0 8 -9 9 -20z m63 0 c0 -11 -4 -20 -10 -20 -5 0 -7 7 -4 15 4 8 1 15 -5
15 -6 0 -11 -7 -11 -15 0 -8 -4 -15 -10 -15 -5 0 -10 9 -10 20 0 15 7 20 25
20 18 0 25 -5 25 -20z m40 0 c0 -11 -4 -20 -10 -20 -5 0 -10 9 -10 20 0 11 5
20 10 20 6 0 10 -9 10 -20z m30 -32 c0 -28 -3 -49 -6 -46 -9 10 -11 98 -2 98
4 0 8 -23 8 -52z m60 29 c0 -16 -6 -23 -20 -23 -14 0 -20 7 -20 23 0 16 6 23
20 23 14 0 20 -7 20 -23z m-272 -59 c13 -3 12 -5 -5 -10 -20 -5 -23 -2 -22 20
1 16 3 20 6 10 2 -9 12 -18 21 -20z m12 22 c0 -5 -4 -10 -10 -10 -5 0 -10 5
-10 10 0 6 5 10 10 10 6 0 10 -4 10 -10z m32 -42 c2 -21 0 -38 -4 -38 -4 0 -8
21 -7 48 1 52 6 48 11 -10z m35 32 c-1 -11 -5 -20 -9 -20 -4 0 -8 9 -8 20 0
11 4 20 9 20 6 0 9 -9 8 -20z m33 5 c0 -8 5 -15 11 -15 5 0 8 4 4 9 -3 5 -1
12 5 16 6 4 11 -6 11 -24 1 -17 2 -39 3 -48 1 -12 -6 -18 -24 -18 -22 0 -24 4
-25 48 0 26 3 47 7 47 5 0 8 -7 8 -15z m70 5 c0 -5 -5 -10 -11 -10 -5 0 -7 5
-4 10 3 6 8 10 11 10 2 0 4 -4 4 -10z m-233 -32 c-3 -7 -5 -2 -5 12 0 14 2 19
5 13 2 -7 2 -19 0 -25z m323 12 c0 -13 -7 -20 -20 -20 -13 0 -20 7 -20 20 0
13 7 20 20 20 13 0 20 -7 20 -20z m50 12 c0 -4 -9 -8 -20 -8 -11 0 -20 4 -20
8 0 4 9 8 20 8 11 0 20 -4 20 -8z m-140 -22 c0 -5 -4 -10 -10 -10 -5 0 -10 5
-10 10 0 6 5 10 10 10 6 0 10 -4 10 -10z m142 -30 c3 -17 1 -33 -4 -36 -4 -3
-8 11 -8 30 0 44 6 47 12 6z m-317 -18 c-3 -4 -10 0 -15 8 -7 10 -10 11 -10 3
0 -7 -4 -13 -10 -13 -20 0 -9 29 13 32 21 3 36 -16 22 -30z m75 12 c0 -14 -4
-23 -10 -19 -5 3 -10 15 -10 26 0 10 5 19 10 19 6 0 10 -12 10 -26z m-133 -6
c-3 -8 -6 -5 -6 6 -1 11 2 17 5 13 3 -3 4 -12 1 -19z m233 2 c0 -11 -4 -20
-10 -20 -5 0 -10 9 -10 20 0 11 5 20 10 20 6 0 10 -9 10 -20z m30 0 c0 -11 -4
-20 -9 -20 -5 0 -7 9 -4 20 3 11 7 20 9 20 2 0 4 -9 4 -20z m60 -2 c0 -11 -7
-18 -20 -18 -13 0 -20 7 -20 19 0 14 6 19 20 18 12 -1 20 -8 20 -19z m30 -10
c0 -12 -3 -18 -7 -14 -11 10 -12 36 -2 36 5 0 9 -10 9 -22z m-236 -30 c11 -44
7 -58 -16 -55 -26 4 -37 47 -12 47 10 0 14 6 10 15 -3 8 -2 15 3 15 5 0 11
-10 15 -22z m-278 -25 c-8 -59 -11 -72 -20 -80 -8 -8 1 77 11 103 10 26 14 14
9 -23z m154 -22 c0 -45 -1 -48 -24 -44 -20 4 -24 11 -24 48 -1 34 3 45 16 48
27 6 32 -1 32 -52z m70 12 c0 -7 -4 -13 -10 -13 -5 0 -10 6 -10 14 0 8 -3 23
-6 33 -6 16 -5 16 9 -2 9 -11 17 -26 17 -32z m173 34 c4 3 7 -1 7 -9 0 -11 -6
-14 -20 -11 -11 3 -20 12 -20 20 0 12 3 13 13 4 8 -6 17 -8 20 -4z m-731 -23
c-4 -22 -6 -24 -14 -10 -9 16 -3 36 11 36 5 0 6 -12 3 -26z m519 9 c0 -10 2
-25 3 -33 2 -8 0 -24 -4 -35 -5 -14 -9 -4 -11 33 -2 28 -1 52 4 52 4 0 7 -8 8
-17z m129 -13 c0 -16 -3 -30 -7 -30 -5 0 -8 14 -8 30 0 17 3 30 8 30 4 0 7
-13 7 -30z m30 20 c0 -5 -2 -10 -4 -10 -3 0 -8 5 -11 10 -3 6 -1 10 4 10 6 0
11 -4 11 -10z m90 -5 c0 -8 -4 -15 -10 -15 -5 0 -7 7 -4 15 4 8 8 15 10 15 2
0 4 -7 4 -15z m30 8 c0 -5 -5 -15 -10 -23 -8 -12 -10 -11 -10 8 0 12 5 22 10
22 6 0 10 -3 10 -7z m40 -24 c0 -13 -7 -19 -21 -19 -15 0 -19 4 -15 16 3 9 6
20 6 25 0 4 7 6 15 3 8 -4 15 -15 15 -25z m110 21 c0 -5 -2 -10 -4 -10 -3 0
-8 5 -11 10 -3 6 -1 10 4 10 6 0 11 -4 11 -10z m-909 -19 c16 26 18 2 4 -42
-12 -37 -14 -39 -10 -10 4 26 2 32 -10 27 -17 -6 -18 -5 -8 20 5 13 8 14 11 5
4 -11 6 -11 13 0z m315 -79 c-13 -13 -17 9 -10 50 l9 43 3 -44 c2 -23 1 -46
-2 -49z m514 67 c0 -11 -4 -17 -10 -14 -5 3 -10 13 -10 21 0 8 5 14 10 14 6 0
10 -9 10 -21z m30 1 c0 -11 -2 -20 -4 -20 -2 0 -6 9 -9 20 -3 11 -1 20 4 20 5
0 9 -9 9 -20z m67 -13 c4 -7 0 -8 -11 -4 -10 4 -22 7 -27 7 -5 0 -9 4 -9 9 0
12 38 2 47 -12z m93 -5 c0 -15 -2 -15 -10 -2 -13 20 -13 33 0 25 6 -3 10 -14
10 -23z m-327 -1 c-5 -19 -43 -26 -43 -8 0 5 7 7 15 3 9 -3 15 0 15 9 0 8 4
15 9 15 5 0 7 -9 4 -19z m297 4 c0 -8 -2 -15 -4 -15 -2 0 -6 7 -10 15 -3 8 -1
15 4 15 6 0 10 -7 10 -15z m47 -17 c-3 -7 -5 -2 -5 12 0 14 2 19 5 13 2 -7 2
-19 0 -25z m-294 -25 c3 -24 1 -43 -4 -43 -5 0 -9 21 -9 47 0 56 5 54 13 -4z
m-224 30 c0 -5 -4 -17 -9 -28 -8 -18 -9 -17 -9 8 -1 15 4 27 9 27 6 0 10 -3 9
-7z m262 -23 c6 0 8 4 4 9 -3 5 -1 12 5 16 5 3 10 -3 10 -14 0 -14 -6 -21 -20
-21 -14 0 -20 6 -19 23 1 16 2 18 6 5 2 -10 9 -18 14 -18z m-721 -6 c0 -17 -4
-21 -20 -17 -11 3 -20 14 -20 24 0 12 7 17 20 16 13 -1 20 -8 20 -23z m33 -4
c-7 -28 -13 -25 -13 6 0 14 4 23 9 20 5 -3 7 -15 4 -26z m453 13 c-5 -15 -4
-15 9 1 15 19 15 19 15 -2 0 -15 -6 -22 -20 -22 -13 0 -20 7 -20 20 0 11 5 20
11 20 6 0 8 -8 5 -17z m174 13 c0 -3 -4 -8 -10 -11 -5 -3 -10 -1 -10 4 0 6 5
11 10 11 6 0 10 -2 10 -4z m107 -18 c-3 -8 -6 -5 -6 6 -1 11 2 17 5 13 3 -3 4
-12 1 -19z m103 2 c0 -11 -2 -20 -4 -20 -2 0 -6 9 -9 20 -3 11 -1 20 4 20 5 0
9 -9 9 -20z m27 -12 c-3 -7 -5 -2 -5 12 0 14 2 19 5 13 2 -7 2 -19 0 -25z
m-834 2 c-3 -11 -7 -20 -9 -20 -2 0 -4 9 -4 20 0 11 4 20 9 20 5 0 7 -9 4 -20z
m37 10 c0 -5 -4 -10 -10 -10 -5 0 -10 5 -10 10 0 6 5 10 10 10 6 0 10 -4 10
-10z m436 -16 c-4 -9 -9 -15 -11 -12 -3 3 -3 13 1 22 4 9 9 15 11 12 3 -3 3
-13 -1 -22z m29 -19 c0 -25 -3 -45 -7 -45 -10 0 -11 74 -1 83 3 4 7 7 7 7 1 0
1 -20 1 -45z m362 13 c-3 -7 -5 -2 -5 12 0 14 2 19 5 13 2 -7 2 -19 0 -25z
m-327 2 c0 -11 -4 -20 -10 -20 -5 0 -10 9 -10 20 0 11 5 20 10 20 6 0 10 -9
10 -20z m23 0 c3 -11 1 -20 -4 -20 -5 0 -9 9 -9 20 0 11 2 20 4 20 2 0 6 -9 9
-20z m-303 -10 c0 -11 -4 -20 -8 -20 -4 0 -8 9 -8 20 0 11 4 20 8 20 4 0 8 -9
8 -20z m60 10 c4 0 6 -9 3 -20 -3 -11 -9 -20 -14 -20 -5 0 -6 7 -3 15 4 8 2
15 -3 15 -5 0 -9 -9 -10 -20 -1 -11 4 -20 13 -20 8 0 14 -9 14 -20 0 -15 -7
-20 -25 -20 -20 0 -24 4 -21 23 3 12 5 35 5 51 1 21 5 27 17 22 9 -3 19 -6 24
-6z m274 -5 c3 -8 1 -15 -4 -15 -6 0 -10 7 -10 15 0 8 2 15 4 15 2 0 6 -7 10
-15z m-560 -10 c-4 -9 0 -15 10 -15 9 0 16 -8 16 -20 0 -25 -20 -27 -21 -2 -1
16 -2 16 -6 0 -7 -26 -24 -22 -19 5 3 12 5 28 5 35 1 6 5 12 11 12 5 0 7 -7 4
-15z m61 5 c3 -5 1 -10 -4 -10 -6 0 -11 5 -11 10 0 6 2 10 4 10 3 0 8 -4 11
-10z m257 -37 c-7 -65 -12 -67 -12 -5 0 29 4 52 9 52 5 0 6 -21 3 -47z m308
32 c0 -8 -4 -15 -10 -15 -5 0 -10 7 -10 15 0 8 5 15 10 15 6 0 10 -7 10 -15z
m30 -11 c0 -8 -4 -14 -10 -14 -5 0 -10 9 -10 21 0 11 5 17 10 14 6 -3 10 -13
10 -21z m30 4 c0 -19 -2 -20 -10 -8 -13 19 -13 30 0 30 6 0 10 -10 10 -22z
m-530 3 c0 -5 -9 -7 -20 -4 -11 3 -20 7 -20 9 0 2 9 4 20 4 11 0 20 -4 20 -9z
m193 -11 c-3 -11 -7 -20 -9 -20 -2 0 -4 9 -4 20 0 11 4 20 9 20 5 0 7 -9 4
-20z m43 12 c13 -8 27 -75 19 -84 -4 -3 -15 -4 -26 -1 -15 4 -19 14 -19 49 0
44 5 50 26 36z m321 -14 c-3 -8 -6 -5 -6 6 -1 11 2 17 5 13 3 -3 4 -12 1 -19z
m37 7 c3 -8 1 -15 -4 -15 -6 0 -10 7 -10 15 0 8 2 15 4 15 2 0 6 -7 10 -15z
m23 -17 c-3 -7 -5 -2 -5 12 0 14 2 19 5 13 2 -7 2 -19 0 -25z m36 12 c3 -11 1
-20 -4 -20 -5 0 -9 9 -9 20 0 11 2 20 4 20 2 0 6 -9 9 -20z m-877 -10 c0 -11
-4 -20 -8 -20 -4 0 -8 9 -8 20 0 11 4 20 8 20 4 0 8 -9 8 -20z m34 10 c0 -5
-4 -10 -10 -10 -5 0 -10 5 -10 10 0 6 5 10 10 10 6 0 10 -4 10 -10z m473 -10
c3 -11 1 -20 -4 -20 -5 0 -9 9 -9 20 0 11 2 20 4 20 2 0 6 -9 9 -20z m394 -12
c-3 -7 -5 -2 -5 12 0 14 2 19 5 13 2 -7 2 -19 0 -25z m-777 2 c0 -11 -4 -20
-9 -20 -5 0 -7 9 -4 20 3 11 7 20 9 20 2 0 4 -9 4 -20z m27 -17 c-3 -10 -5 -4
-5 12 0 17 2 24 5 18 2 -7 2 -21 0 -30z m423 12 c0 -16 6 -25 15 -25 8 0 15
-9 15 -19 0 -32 -40 -23 -41 9 0 14 -2 33 -4 43 -2 9 1 17 6 17 5 0 9 -11 9
-25z m30 5 c0 -11 -4 -20 -9 -20 -6 0 -9 9 -8 20 1 11 5 20 9 20 4 0 8 -9 8
-20z m327 -2 c-3 -8 -6 -5 -6 6 -1 11 2 17 5 13 3 -3 4 -12 1 -19z m30 -10
c-3 -7 -5 -2 -5 12 0 14 2 19 5 13 2 -7 2 -19 0 -25z m-767 2 c0 -11 -4 -20
-10 -20 -5 0 -10 9 -10 20 0 11 5 20 10 20 6 0 10 -9 10 -20z m30 0 c0 -11 -4
-20 -9 -20 -6 0 -9 9 -8 20 1 11 5 20 9 20 4 0 8 -9 8 -20z m27 -12 c-3 -7 -5
-2 -5 12 0 14 2 19 5 13 2 -7 2 -19 0 -25z m40 12 c-5 -31 -17 -36 -17 -7 0
15 4 27 10 27 5 0 9 -9 7 -20z m340 -2 c-3 -8 -6 -5 -6 6 -1 11 2 17 5 13 3
-3 4 -12 1 -19z m33 2 c0 -11 -2 -20 -4 -20 -2 0 -6 9 -9 20 -3 11 -1 20 4 20
5 0 9 -9 9 -20z m33 0 c3 -11 1 -20 -4 -20 -5 0 -9 9 -9 20 0 11 2 20 4 20 2
0 6 -9 9 -20z m297 5 c0 -8 -2 -15 -4 -15 -2 0 -6 7 -10 15 -3 8 -1 15 4 15 6
0 10 -7 10 -15z m-273 -27 c-3 -7 -5 -2 -5 12 0 14 2 19 5 13 2 -7 2 -19 0
-25z m30 0 c-3 -7 -5 -2 -5 12 0 14 2 19 5 13 2 -7 2 -19 0 -25z m290 0 c-3
-7 -5 -2 -5 12 0 14 2 19 5 13 2 -7 2 -19 0 -25z m-630 -10 c-3 -7 -5 -2 -5
12 0 14 2 19 5 13 2 -7 2 -19 0 -25z m-590 4 c-24 -27 -21 -38 4 -16 22 19 22
19 11 -1 -5 -11 -20 -29 -31 -39 -21 -19 -21 -19 -21 1 0 19 35 73 47 73 3 0
-1 -8 -10 -18z m153 -3 c0 -6 -4 -7 -10 -4 -5 3 -10 11 -10 16 0 6 5 7 10 4 6
-3 10 -11 10 -16z m540 1 c0 -11 -4 -20 -10 -20 -5 0 -10 9 -10 20 0 11 5 20
10 20 6 0 10 -9 10 -20z m30 0 c0 -11 -4 -20 -10 -20 -5 0 -10 9 -10 20 0 11
5 20 10 20 6 0 10 -9 10 -20z m-804 -27 c-4 -4 -11 -2 -15 5 -4 7 -15 10 -24
6 -9 -3 -17 -1 -17 4 0 6 8 12 18 15 19 4 50 -19 38 -30z m281 5 c-3 -7 -5 -2
-5 12 0 14 2 19 5 13 2 -7 2 -19 0 -25z m43 22 c0 -5 -4 -10 -10 -10 -5 0 -10
5 -10 10 0 6 5 10 10 10 6 0 10 -4 10 -10z m567 -22 c-3 -7 -5 -2 -5 12 0 14
2 19 5 13 2 -7 2 -19 0 -25z m-507 18 c0 -3 -4 -8 -10 -11 -5 -3 -10 -1 -10 4
0 6 5 11 10 11 6 0 10 -2 10 -4z m30 -6 c0 -5 -4 -10 -10 -10 -5 0 -10 5 -10
10 0 6 5 10 10 10 6 0 10 -4 10 -10z m507 -22 c-3 -7 -5 -2 -5 12 0 14 2 19 5
13 2 -7 2 -19 0 -25z m36 12 c-3 -11 -7 -20 -9 -20 -2 0 -4 9 -4 20 0 11 4 20
9 20 5 0 7 -9 4 -20z m-923 -10 c0 -11 -4 -20 -9 -20 -5 0 -7 9 -4 20 3 11 7
20 9 20 2 0 4 -9 4 -20z m550 10 c0 -5 -4 -10 -10 -10 -5 0 -10 5 -10 10 0 6
5 10 10 10 6 0 10 -4 10 -10z m30 -6 c0 -8 -5 -12 -10 -9 -6 4 -8 11 -5 16 9
14 15 11 15 -7z m367 -16 c-3 -7 -5 -2 -5 12 0 14 2 19 5 13 2 -7 2 -19 0 -25z
m33 12 c0 -11 -4 -20 -9 -20 -5 0 -7 9 -4 20 3 11 7 20 9 20 2 0 4 -9 4 -20z
m-795 0 c3 -6 -1 -7 -9 -4 -18 7 -21 14 -7 14 6 0 13 -4 16 -10z m111 -38
c-11 -10 -15 4 -8 28 l7 25 3 -23 c2 -13 1 -26 -2 -30z m314 38 c0 -5 -2 -10
-4 -10 -3 0 -8 5 -11 10 -3 6 -1 10 4 10 6 0 11 -4 11 -10z m27 -12 c-3 -8 -6
-5 -6 6 -1 11 2 17 5 13 3 -3 4 -12 1 -19z m66 -5 c-4 -11 -8 -12 -13 -3 -4 7
-13 9 -19 6 -6 -4 -11 -1 -11 7 0 10 8 13 24 10 17 -4 23 -10 19 -20z m334 -5
c-3 -7 -5 -2 -5 12 0 14 2 19 5 13 2 -7 2 -19 0 -25z m-897 6 c0 -2 -7 -4 -15
-4 -8 0 -15 4 -15 10 0 5 7 7 15 4 8 -4 15 -8 15 -10z m216 3 c4 -4 -5 -7 -20
-7 -15 0 -25 4 -22 9 7 10 31 9 42 -2z m741 -19 c-3 -7 -5 -2 -5 12 0 14 2 19
5 13 2 -7 2 -19 0 -25z m-707 18 c0 -3 -4 -8 -10 -11 -5 -3 -10 -1 -10 4 0 6
5 11 10 11 6 0 10 -2 10 -4z m80 -12 c0 -7 -8 -10 -20 -7 -11 3 -20 8 -20 12
0 4 9 7 20 7 11 0 20 -6 20 -12z m330 6 c0 -5 -2 -10 -4 -10 -3 0 -8 5 -11 10
-3 6 -1 10 4 10 6 0 11 -4 11 -10z m25 0 c3 -5 1 -10 -4 -10 -6 0 -11 5 -11
10 0 6 2 10 4 10 3 0 8 -4 11 -10z m-295 -10 c0 -5 -5 -10 -11 -10 -5 0 -7 5
-4 10 3 6 8 10 11 10 2 0 4 -4 4 -10z m540 0 c0 -5 -2 -10 -4 -10 -3 0 -8 5
-11 10 -3 6 -1 10 4 10 6 0 11 -4 11 -10z m-725 -39 c-6 -38 -15 -54 -15 -28
0 10 -7 17 -16 17 -8 0 -12 5 -9 10 4 6 10 8 15 5 5 -3 11 -1 15 5 3 5 -1 10
-9 10 -9 0 -16 4 -16 9 0 6 9 9 20 8 18 -1 20 -6 15 -36z m215 29 c0 -5 -2
-10 -4 -10 -3 0 -8 5 -11 10 -3 6 -1 10 4 10 6 0 11 -4 11 -10z m25 0 c3 -5 1
-10 -4 -10 -6 0 -11 5 -11 10 0 6 2 10 4 10 3 0 8 -4 11 -10z m-325 -10 c0 -5
-5 -10 -11 -10 -5 0 -7 5 -4 10 3 6 8 10 11 10 2 0 4 -4 4 -10z m150 0 c0 -5
-5 -10 -11 -10 -5 0 -7 5 -4 10 3 6 8 10 11 10 2 0 4 -4 4 -10z m56 -9 c-3 -5
-15 -7 -26 -4 -28 7 -25 13 6 13 14 0 23 -4 20 -9z m34 -1 c0 -5 -4 -10 -10
-10 -5 0 -10 5 -10 10 0 6 5 10 10 10 6 0 10 -4 10 -10z m280 0 c0 -5 -5 -10
-11 -10 -5 0 -7 5 -4 10 3 6 8 10 11 10 2 0 4 -4 4 -10z m-793 -32 c-3 -7 -5
-2 -5 12 0 14 2 19 5 13 2 -7 2 -19 0 -25z m43 11 c0 -5 -6 -9 -13 -9 -8 0
-14 6 -14 14 0 8 6 12 14 9 7 -3 13 -9 13 -14z m49 5 c-10 -13 -10 -17 0 -24
8 -4 9 -10 3 -14 -15 -9 -24 24 -11 40 6 8 14 14 16 14 3 0 0 -7 -8 -16z m189
5 c6 19 21 12 19 -10 -1 -18 -6 -20 -37 -14 -41 8 -44 10 -35 24 4 8 13 8 28
0 16 -9 22 -9 25 0z m262 7 c0 -3 -4 -8 -10 -11 -5 -3 -10 -1 -10 4 0 6 5 11
10 11 6 0 10 -2 10 -4z m50 -8 c0 -3 -9 -6 -20 -5 -11 1 -20 5 -20 9 0 3 9 6
20 5 11 -1 20 -5 20 -9z m-201 -5 c0 -5 -4 -17 -9 -28 -8 -18 -9 -17 -9 8 -1
15 4 27 9 27 6 0 10 -3 9 -7z m24 -23 c-8 -29 -21 -25 -15 5 2 14 8 23 12 20
5 -3 6 -14 3 -25z m-203 7 c0 -5 -13 -14 -30 -20 -16 -6 -30 -15 -30 -20 0 -4
-4 -5 -10 -2 -5 3 -10 2 -10 -4 0 -5 -9 -9 -20 -8 -23 1 -24 6 -7 28 7 9 18
14 25 12 6 -3 12 1 12 7 0 7 8 10 20 7 11 -3 18 -1 15 3 -3 5 4 8 15 7 11 -1
20 -5 20 -10z m260 -14 c0 -13 -5 -23 -11 -23 -6 0 -9 7 -5 15 3 8 1 15 -4 15
-6 0 -10 -7 -10 -16 0 -8 -4 -13 -9 -10 -16 10 0 45 20 43 13 -1 19 -9 19 -24z
m223 20 c-7 -2 -19 -2 -25 0 -7 3 -2 5 12 5 14 0 19 -2 13 -5z m-204 -47 c-9
-8 -10 -7 -5 7 3 10 7 24 7 30 1 7 3 4 6 -7 3 -10 -1 -23 -8 -30z m96 24 c-3
-5 -14 -6 -25 -3 -11 3 -18 9 -15 13 3 5 14 6 25 3 11 -3 18 -9 15 -13z m218
13 c-7 -2 -19 -2 -25 0 -7 3 -2 5 12 5 14 0 19 -2 13 -5z m-743 -7 c0 -2 -9
-6 -20 -9 -11 -3 -20 -1 -20 4 0 5 9 9 20 9 11 0 20 -2 20 -4z m559 -3 c0 -5
-4 -17 -9 -28 -8 -18 -9 -17 -9 8 -1 15 4 27 9 27 6 0 10 -3 9 -7z m18 -30
c-3 -10 -5 -4 -5 12 0 17 2 24 5 18 2 -7 2 -21 0 -30z m63 17 c0 -5 -4 -10
-10 -10 -5 0 -10 5 -10 10 0 6 5 10 10 10 6 0 10 -4 10 -10z m-650 -10 c0 -5
-8 -10 -17 -10 -15 0 -16 2 -3 10 19 12 20 12 20 0z m480 6 c0 -3 -4 -8 -10
-11 -5 -3 -10 -1 -10 4 0 6 5 11 10 11 6 0 10 -2 10 -4z m50 -16 c0 -5 -9 -6
-20 -3 -11 3 -17 9 -15 14 7 10 35 1 35 -11z m167 -12 c-3 -7 -5 -2 -5 12 0
14 2 19 5 13 2 -7 2 -19 0 -25z m58 22 c3 -5 1 -10 -4 -10 -6 0 -11 5 -11 10
0 6 2 10 4 10 3 0 8 -4 11 -10z m-105 -14 c0 -3 -4 -8 -10 -11 -5 -3 -10 -1
-10 4 0 6 5 11 10 11 6 0 10 -2 10 -4z m-720 -16 c0 -5 9 -10 21 -10 11 0 17
-4 14 -10 -3 -5 6 -12 20 -16 14 -3 25 -10 25 -15 0 -5 12 -9 26 -9 14 0 23
-4 19 -10 -3 -5 6 -17 20 -26 25 -16 25 -40 -1 -30 -8 3 -14 1 -14 -5 0 -5 7
-12 15 -15 8 -4 12 -10 9 -15 -3 -5 -11 -6 -17 -2 -7 4 -6 -1 2 -11 11 -13 16
-14 22 -4 7 10 9 10 10 -2 0 -8 3 -26 5 -40 2 -14 6 -37 8 -53 1 -15 6 -30 9
-33 3 -4 -3 -14 -13 -23 -11 -9 -22 -33 -25 -54 -4 -35 -3 -38 12 -25 15 12
15 11 3 -8 -11 -18 -16 -20 -27 -9 -7 7 -18 15 -24 17 -7 2 -4 17 10 43 11 22
21 46 21 54 0 24 -16 1 -35 -52 -17 -46 -17 -48 1 -61 10 -8 16 -18 11 -22 -4
-4 -13 -2 -19 4 -7 7 -17 12 -22 12 -6 0 0 -7 12 -16 20 -14 22 -42 2 -29 -4
3 -6 -3 -4 -12 6 -23 -11 -48 -25 -38 -7 3 -9 16 -6 28 5 20 5 20 -5 4 -6 -9
-15 -15 -20 -12 -4 3 -6 -4 -3 -15 4 -16 2 -19 -13 -14 -15 5 -16 4 -4 -5 8
-5 11 -13 7 -17 -4 -4 -12 -3 -18 3 -6 6 -3 24 10 55 11 26 17 49 14 52 -4 3
-31 7 -62 7 l-56 1 40 10 c22 5 50 10 62 11 12 1 19 5 15 9 -4 3 -124 14 -267
23 -143 9 -264 20 -268 24 -19 19 25 33 87 29 36 -2 62 0 60 4 -3 4 -27 8 -54
8 -79 0 -81 3 -49 68 29 62 70 107 90 100 8 -3 23 13 35 36 12 23 31 45 43 51
11 5 21 13 21 17 0 5 31 8 68 8 71 0 172 24 172 40 0 6 7 10 15 10 8 0 15 -4
15 -10z m80 0 c0 -5 -5 -10 -11 -10 -5 0 -7 5 -4 10 3 6 8 10 11 10 2 0 4 -4
4 -10z m630 -26 c0 -2 -9 -4 -20 -4 -11 0 -20 4 -20 9 0 5 9 7 20 4 11 -3 20
-7 20 -9z m-443 0 c-3 -3 -12 -4 -19 -1 -8 3 -5 6 6 6 11 1 17 -2 13 -5z m323
-20 c0 -2 -9 -4 -20 -4 -11 0 -20 4 -20 9 0 5 9 7 20 4 11 -3 20 -7 20 -9z
m-245 -14 c3 -6 -1 -7 -9 -4 -18 7 -21 14 -7 14 6 0 13 -4 16 -10z m-145 -31
c0 -10 7 -19 15 -19 8 0 15 -4 15 -10 0 -17 -13 -11 -50 21 -19 17 -27 28 -17
25 9 -3 17 -1 17 5 0 6 5 7 10 4 6 -3 10 -15 10 -26z m353 1 c-3 -11 -7 -20
-9 -20 -2 0 -4 9 -4 20 0 11 4 20 9 20 5 0 7 -9 4 -20z m-255 -50 c3 -8 0 -10
-8 -5 -10 6 -12 4 -7 -9 5 -12 3 -16 -5 -13 -7 2 -12 13 -10 23 2 15 1 16 -6
5 -12 -17 -33 -5 -26 14 4 8 -1 18 -10 21 -9 3 -16 11 -16 16 0 13 83 -36 88
-52z m162 48 c0 -11 -12 -10 -30 2 -12 7 -10 9 8 7 12 0 22 -5 22 -9z m-255
-56 c-3 -3 5 -16 17 -29 12 -13 18 -23 13 -23 -5 0 6 -16 25 -35 19 -19 40
-35 47 -35 7 0 13 -5 13 -11 0 -6 -17 -1 -37 11 -37 22 -37 22 -19 1 10 -11
27 -23 37 -26 11 -4 19 -11 19 -16 0 -6 -7 -6 -19 1 -27 14 -31 13 -25 -5 5
-11 2 -13 -10 -9 -12 4 -14 10 -6 18 7 9 1 22 -21 44 -18 18 -28 36 -23 43 4
8 3 9 -4 5 -7 -4 -13 3 -17 19 -3 14 -8 37 -11 52 -5 23 -3 25 11 13 8 -7 13
-15 10 -18z m135 -13 c0 -4 -7 -6 -15 -3 -8 4 -15 10 -15 15 0 4 7 6 15 3 8
-4 15 -10 15 -15z m-67 -22 c21 -17 22 -28 2 -21 -27 11 -16 -6 18 -26 34 -21
30 -28 -6 -8 -32 17 -52 38 -36 38 7 0 2 12 -12 26 -20 22 -21 25 -4 16 11 -7
28 -18 38 -25z m52 3 c3 -5 -1 -10 -9 -10 -9 0 -16 5 -16 10 0 6 4 10 9 10 6
0 13 -4 16 -10z m5 -41 c0 -4 -7 -6 -15 -3 -8 4 -15 10 -15 15 0 4 7 6 15 3 8
-4 15 -10 15 -15z m-92 -81 c-10 -6 -7 -13 11 -28 18 -15 21 -23 12 -34 -8
-10 -6 -17 8 -30 15 -13 20 -14 24 -4 3 7 6 3 6 -10 l1 -23 -30 21 c-33 24
-39 17 -12 -13 17 -19 16 -19 -5 -6 -12 7 -23 23 -23 34 -2 62 -9 115 -16 127
-4 7 2 4 15 -6 16 -15 18 -22 9 -28z m77 -38 c3 -5 2 -10 -4 -10 -5 0 -13 5
-16 10 -3 6 -2 10 4 10 5 0 13 -4 16 -10z m-109 -37 c4 -22 18 -49 33 -63 15
-14 20 -20 12 -14 -45 32 -56 24 -21 -14 19 -21 20 -22 1 -31 -18 -10 -31 -6
-31 11 0 5 5 6 11 2 7 -4 10 -1 7 7 -3 8 -13 13 -23 11 -18 -4 -18 -3 0 25
l18 28 -23 -20 -23 -20 12 22 c14 28 15 95 1 73 -5 -8 -10 -10 -10 -4 0 13 10
24 21 24 5 0 11 -17 15 -37z m99 7 c3 -6 -1 -7 -9 -4 -18 7 -21 14 -7 14 6 0
13 -4 16 -10z m42 -82 c-3 -7 -5 -2 -5 12 0 14 2 19 5 13 2 -7 2 -19 0 -25z
m-193 -14 c3 -8 2 -12 -4 -9 -6 3 -10 -4 -10 -17 -1 -20 -2 -21 -10 -6 -10 17
-4 48 10 48 4 0 11 -7 14 -16z m56 -64 c1 -13 2 -13 13 1 11 14 14 14 30 -2
10 -9 20 -25 21 -34 1 -9 9 -21 17 -26 20 -12 2 -11 -22 2 -13 6 -18 16 -15
26 6 14 4 14 -11 2 -15 -12 -16 -12 -10 5 6 16 5 17 -7 7 -19 -16 -12 -32 22
-54 24 -14 25 -16 7 -17 -12 0 -26 5 -33 12 -7 7 -12 8 -12 2 0 -17 48 -57 59
-49 15 9 14 -1 -4 -35 -13 -26 -13 -30 1 -45 15 -14 11 -15 -42 -11 -33 3 -93
8 -134 11 -41 4 -130 15 -197 26 -152 24 -158 24 -183 -1 -15 -15 -20 -33 -20
-77 0 -80 -7 -88 -55 -61 -22 12 -60 27 -85 33 l-45 12 -3 66 -3 66 83 -5 c46
-3 91 -7 102 -9 10 -2 28 0 40 5 14 5 55 2 106 -7 78 -15 84 -15 96 2 14 19
38 10 30 -12 -3 -8 -1 -11 4 -8 5 3 18 1 29 -4 15 -8 20 -7 26 6 5 15 7 15 16
3 8 -11 9 -10 4 8 -9 30 1 28 32 -9 18 -21 28 -27 33 -18 4 6 12 9 16 6 5 -3
10 9 10 26 1 28 0 29 -12 12 -7 -10 -15 -23 -17 -29 -7 -20 -57 48 -51 69 4
15 3 16 -4 6 -5 -7 -15 -10 -21 -7 -13 8 -14 16 -2 35 7 11 13 10 35 -4 15
-10 25 -24 22 -31 -7 -18 3 -44 17 -44 7 0 7 4 -1 12 -7 7 -12 16 -12 22 0 6
5 5 12 -2 19 -19 30 -14 18 7 -13 25 -13 24 11 52 l20 24 -25 8 c-30 10 -31
15 -10 42 16 20 16 19 9 -4 -5 -16 -4 -21 4 -17 6 4 18 0 27 -8 14 -14 13 -18
-3 -41 -10 -13 -21 -25 -25 -25 -5 0 -8 -5 -8 -11 0 -6 7 -8 16 -5 12 4 14 1
9 -14 -4 -12 -2 -20 6 -20 8 0 8 -5 -2 -16 -11 -14 -10 -19 10 -35 26 -21 41
-24 41 -8 0 5 5 7 11 3 8 -5 8 -1 0 14 -6 12 -16 24 -21 27 -6 3 -10 11 -10
18 0 6 17 -5 37 -24 21 -18 28 -22 15 -8 -13 14 -27 43 -33 63 -9 31 -13 35
-25 25 -17 -14 -19 2 -2 19 8 8 15 9 25 1 9 -8 13 -8 13 -1 0 6 -5 14 -10 17
-8 5 -7 11 1 21 6 8 8 18 4 22 -4 4 -10 1 -12 -5 -6 -17 -20 -16 -26 1 -4 10
-1 13 9 9 7 -3 14 0 14 6 0 6 -5 11 -11 11 -5 0 -8 4 -4 10 8 12 45 -20 45
-40z m-125 -24 c24 -22 25 -27 13 -44 -13 -20 -14 -19 -41 4 -24 21 -26 26
-15 44 7 11 14 20 15 20 1 0 14 -11 28 -24z m-80 -44 c-4 -14 -12 -19 -23 -16
-9 3 -3 -7 15 -23 29 -25 31 -30 18 -47 -7 -10 -18 -15 -24 -11 -17 10 -13 28
4 21 19 -7 19 1 0 20 -13 14 -16 14 -21 0 -3 -8 -12 -12 -20 -9 -8 3 -11 9 -8
14 3 5 10 7 15 4 5 -3 6 1 3 9 -8 21 25 81 38 68 5 -5 7 -19 3 -30z m-564 -72
c5 0 9 -33 9 -74 0 -72 -1 -74 -30 -86 -16 -7 -35 -18 -41 -26 -19 -23 -24
-16 -26 34 -4 97 27 171 65 157 8 -3 18 -5 23 -5z m853 -14 c-5 -20 -1 -24 28
-30 26 -5 30 -9 18 -16 -8 -5 -19 -10 -25 -10 -5 0 -3 5 5 10 9 6 10 10 3 10
-6 0 -15 -5 -18 -10 -4 -6 -12 -5 -21 4 -11 12 -12 20 -2 40 14 32 20 33 12 2z
m-114 -11 c14 -16 10 -18 -14 -9 -9 3 -16 10 -16 15 0 14 16 11 30 -6z m-513
-262 c-11 -11 -20 -13 -33 -5 -18 10 -18 11 1 18 11 4 24 15 30 23 8 14 10 14
13 -3 2 -10 -3 -25 -11 -33z m-370 -95 c-3 -7 -5 -2 -5 12 0 14 2 19 5 13 2
-7 2 -19 0 -25z m47 -73 l36 -55 -30 0 c-18 0 -29 -4 -25 -10 3 -5 19 -10 35
-10 17 0 41 -11 57 -25 24 -21 26 -26 13 -35 -8 -5 -11 -10 -6 -10 26 0 -18
-23 -67 -34 -64 -15 -92 -6 -83 28 3 11 1 28 -4 36 -5 8 -4 22 2 34 6 11 12
27 13 36 3 29 18 100 20 100 1 0 19 -25 39 -55z m690 -201 c9 -3 14 -10 11
-15 -7 -10 -35 0 -35 12 0 11 3 11 24 3z"/>
<path d="M6956 1865 c4 -8 10 -12 15 -9 11 6 2 24 -11 24 -5 0 -7 -7 -4 -15z"/>
<path d="M6946 1817 c3 -10 9 -15 12 -12 3 3 0 11 -7 18 -10 9 -11 8 -5 -6z"/>
<path d="M6440 1990 c0 -5 5 -10 10 -10 6 0 10 5 10 10 0 6 -4 10 -10 10 -5 0
-10 -4 -10 -10z"/>
<path d="M6575 2010 c3 -5 8 -10 11 -10 2 0 4 5 4 10 0 6 -5 10 -11 10 -5 0
-7 -4 -4 -10z"/>
<path d="M6240 1885 c0 -14 4 -25 9 -25 4 0 6 11 3 25 -2 14 -6 25 -8 25 -2 0
-4 -11 -4 -25z"/>
<path d="M6353 1760 c-1 -11 2 -20 8 -20 5 0 9 9 9 20 0 11 -4 20 -8 20 -4 0
-8 -9 -9 -20z"/>
<path d="M5680 1270 c-33 -7 -31 -7 18 -9 29 0 52 3 52 9 0 11 -17 11 -70 0z"/>
<path d="M5780 1250 c0 -5 5 -10 11 -10 5 0 7 5 4 10 -3 6 -8 10 -11 10 -2 0
-4 -4 -4 -10z"/>
<path d="M5705 1160 c3 -5 8 -10 11 -10 2 0 4 5 4 10 0 6 -5 10 -11 10 -5 0
-7 -4 -4 -10z"/>
<path d="M5715 1070 c3 -5 8 -10 11 -10 2 0 4 5 4 10 0 6 -5 10 -11 10 -5 0
-7 -4 -4 -10z"/>
<path d="M5700 970 c0 -5 5 -10 11 -10 5 0 7 5 4 10 -3 6 -8 10 -11 10 -2 0
-4 -4 -4 -10z"/>
<path d="M6504 4602 c-6 -4 -13 -17 -16 -29 -5 -19 -2 -23 17 -23 17 0 23 6
23 25 0 28 -9 37 -24 27z"/>
<path d="M6620 4560 c0 -5 7 -10 15 -10 8 0 15 5 15 10 0 6 -7 10 -15 10 -8 0
-15 -4 -15 -10z"/>
<path d="M858 4258 c17 -8 26 -8 34 0 9 9 4 12 -22 11 -33 0 -34 -1 -12 -11z"/>
<path d="M1345 3990 c6 -432 27 -984 37 -995 7 -7 8 45 4 150 -3 88 -11 345
-17 570 -6 226 -15 437 -19 470 -6 39 -8 -27 -5 -195z"/>
<path d="M2172 4120 c0 -36 3 -105 7 -155 l8 -90 1 110 c0 61 -3 130 -7 155
-8 44 -9 44 -9 -20z"/>
<path d="M5747 4145 c-33 -23 -72 -76 -63 -86 2 -2 6 -43 9 -90 3 -50 13 -100
23 -121 17 -36 17 -37 -9 -68 -15 -17 -27 -37 -27 -43 0 -7 -15 -22 -33 -33
-17 -12 -40 -35 -50 -52 l-17 -30 36 -12 c21 -7 64 -40 103 -79 37 -36 91 -88
119 -114 29 -27 52 -52 52 -56 0 -5 11 -6 24 -4 35 7 64 -37 48 -72 -14 -31
-28 -32 -44 -2 -16 28 -45 31 -53 6 -10 -32 -26 -10 -19 26 5 29 2 38 -22 59
-16 14 -34 26 -40 26 -6 0 -17 7 -24 15 -7 9 -27 14 -49 13 -20 0 -46 4 -58
10 -12 7 -31 12 -43 12 -24 0 -39 28 -20 40 8 5 9 9 1 14 -6 4 -11 16 -11 27
0 10 -4 19 -10 19 -6 0 -9 -3 -8 -7 1 -5 -8 -35 -21 -67 -12 -33 -29 -89 -37
-125 -9 -37 -33 -94 -58 -135 -24 -39 -46 -81 -50 -93 -4 -13 -11 -23 -16 -23
-12 0 -79 -145 -92 -199 -6 -25 -11 -71 -12 -101 -1 -30 -5 -61 -9 -67 -15
-23 50 -51 134 -58 91 -8 101 -17 86 -77 l-10 -38 -129 5 c-71 3 -133 6 -136
6 -4 1 -10 1 -13 1 -3 -1 -12 11 -18 26 -12 26 -12 26 7 8 19 -17 19 -11 -8
92 -31 120 -48 161 -59 144 -12 -20 -44 47 -37 79 4 23 0 34 -22 55 -38 37
-78 50 -147 49 -68 -2 -120 -29 -167 -89 -33 -42 -67 -168 -75 -283 -3 -46
-10 -86 -14 -89 -5 -3 -24 10 -44 27 -24 22 -35 41 -35 60 0 31 -26 69 -47 69
-8 0 -13 12 -13 31 0 58 -33 89 -113 103 -46 9 -44 29 3 36 26 4 30 7 19 16
-8 6 -22 14 -31 17 -22 8 -23 33 -3 41 22 8 18 37 -5 43 -13 4 -20 14 -20 30
0 13 4 21 10 18 6 -4 10 5 10 21 0 15 8 36 17 46 14 16 15 23 5 38 -13 21 -16
53 -6 63 4 3 15 2 26 -4 33 -18 33 0 0 34 -37 38 -41 51 -12 42 17 -5 20 -2
20 24 0 34 -27 55 -57 44 -29 -11 -93 -67 -93 -81 0 -7 -11 -32 -24 -55 -14
-23 -28 -64 -31 -92 -4 -27 -13 -77 -21 -110 -18 -78 -18 -75 12 -75 17 0 24
-5 21 -12 -24 -67 -29 -88 -23 -104 7 -18 8 -18 26 4 10 12 21 22 24 22 13 0
5 -33 -16 -60 -28 -39 -29 -123 0 -210 11 -36 24 -80 27 -98 8 -37 21 -32 28
8 4 24 4 23 6 -4 1 -24 3 -27 16 -16 8 7 15 17 15 23 0 10 30 36 43 37 4 0 -1
-12 -12 -27 -29 -40 -42 -113 -41 -223 2 -119 2 -118 -10 -100 -5 8 -10 30
-10 48 0 56 -17 26 -25 -43 -5 -52 -3 -74 10 -101 15 -33 37 -48 32 -21 -2 6
1 2 7 -10 10 -23 50 -47 85 -52 5 0 24 -17 42 -36 24 -25 34 -46 36 -72 1 -21
9 -54 17 -73 21 -48 39 -94 40 -102 2 -17 16 -19 17 -2 1 49 16 -26 18 -96 1
-41 6 -78 10 -83 4 -4 84 -10 178 -14 l171 -6 -5 63 c-5 70 20 204 45 233 13
14 14 25 4 68 -16 70 -6 147 25 183 l24 28 20 -20 c22 -25 24 -45 11 -127 -8
-51 -7 -64 7 -88 24 -38 35 -22 50 73 15 94 50 221 67 244 10 14 16 15 33 7
38 -21 51 -14 51 28 0 44 -28 67 -37 31 -3 -11 -13 -20 -23 -20 -13 0 -19 11
-25 46 -5 37 -10 44 -23 39 -21 -8 -18 -8 -64 -6 -21 0 -38 6 -38 11 0 17 42
70 51 64 14 -8 78 37 91 64 l13 27 112 -4 111 -3 23 74 c12 40 30 80 39 88 11
10 20 48 28 118 11 97 23 136 75 254 25 59 53 86 69 70 9 -9 6 -22 -10 -55
-26 -52 -39 -107 -25 -107 5 0 15 19 22 43 22 75 63 182 76 196 8 8 18 10 28
5 16 -9 5 -53 -54 -223 -15 -44 -15 -52 -3 -40 8 9 28 51 43 95 54 149 74 194
86 194 18 0 38 -27 30 -40 -7 -11 -75 -197 -78 -215 -2 -5 -6 -16 -10 -22 -5
-7 -5 -18 -1 -24 4 -8 11 -3 20 12 7 13 10 27 8 31 -3 4 0 16 5 25 6 10 11 12
11 6 0 -15 30 -18 30 -3 0 6 -4 10 -10 10 -5 0 -10 8 -9 18 1 22 37 102 38 84
2 -22 21 -2 21 21 0 18 -2 19 -10 7 -9 -13 -10 -13 -10 0 0 31 13 60 26 60 7
0 29 -14 48 -30 39 -35 48 -29 36 23 -7 33 -5 39 17 57 15 11 23 26 20 34 -3
8 -1 27 5 43 9 24 7 36 -11 71 -15 29 -19 47 -13 59 45 90 63 143 67 197 5 61
4 63 -32 99 -20 20 -44 37 -53 37 -10 0 -23 6 -29 14 -9 11 -17 9 -42 -15 -36
-34 -50 -36 -72 -11 -19 21 -22 48 -7 57 6 3 10 13 10 21 0 12 -4 13 -21 3
-24 -13 -35 -5 -44 34 -8 31 -1 34 23 11 15 -15 17 -15 26 5 6 14 5 30 -2 46
-9 20 -9 30 1 46 10 18 9 23 -12 40 -19 16 -21 22 -11 34 7 8 9 15 5 15 -4 0
-2 7 5 15 7 8 21 15 31 15 24 0 24 12 -1 35 -29 26 -25 38 10 30 37 -8 41 11
4 25 -43 17 -88 11 -127 -15z m48 -206 c4 -12 2 -26 -3 -31 -17 -17 -42 -1
-42 27 0 32 35 35 45 4z m-236 -891 c-1 -94 -36 -128 -115 -113 -46 8 -44 30
6 80 23 22 50 50 62 63 35 37 48 29 47 -30z m-1240 -480 c0 -35 -2 -39 -9 -21
-8 19 -3 63 6 63 2 0 4 -19 3 -42z m31 -408 c0 -5 -4 -10 -10 -10 -5 0 -10 5
-10 10 0 6 5 10 10 10 6 0 10 -4 10 -10z"/>
<path d="M5930 4101 c0 -6 5 -13 10 -16 6 -3 10 1 10 9 0 9 -4 16 -10 16 -5 0
-10 -4 -10 -9z"/>
<path d="M1 3938 c0 -48 2 -50 11 -25 5 15 16 27 24 27 18 0 18 17 0 36 -27
26 -36 16 -35 -38z"/>
<path d="M202 3960 c0 -14 2 -19 5 -12 2 6 2 18 0 25 -3 6 -5 1 -5 -13z"/>
<path d="M1210 3910 c0 -11 5 -20 10 -20 6 0 10 9 10 20 0 11 -4 20 -10 20 -5
0 -10 -9 -10 -20z"/>
<path d="M1 3245 l0 -630 45 120 c25 66 59 167 76 225 30 102 30 110 25 250
-6 169 -46 386 -79 427 -5 6 -10 40 -12 75 -2 45 -10 77 -29 113 l-26 50 0
-630z"/>
<path d="M850 3853 c0 -16 5 -19 30 -15 30 4 43 22 16 22 -8 0 -21 3 -30 6
-11 4 -16 0 -16 -13z"/>
<path d="M3470 3829 c0 -5 5 -7 10 -4 6 3 10 8 10 11 0 2 -4 4 -10 4 -5 0 -10
-5 -10 -11z"/>
<path d="M3431 3759 c-9 -20 -10 -34 -4 -40 13 -13 4 -61 -10 -52 -7 4 -8 -5
-4 -28 6 -34 6 -34 -8 -9 -8 14 -12 33 -9 43 3 9 1 17 -5 17 -14 0 -14 -15 -1
-59 7 -25 6 -39 -4 -53 -13 -18 -15 -17 -27 19 -7 21 -14 34 -16 28 -9 -27 57
-153 105 -201 17 -18 32 -35 32 -39 0 -4 8 -17 19 -30 13 -18 21 -21 30 -12
17 17 13 78 -6 100 -13 14 -18 37 -19 87 -1 37 -4 72 -8 79 -4 6 -5 24 -2 39
3 15 2 34 -4 42 -8 13 -10 12 -10 -3 0 -10 -4 -15 -10 -12 -5 3 -10 18 -10 32
0 21 2 23 15 13 12 -10 16 -9 21 3 8 21 -5 40 -22 33 -9 -3 -18 2 -22 14 -7
18 -9 17 -21 -11z m33 -125 c7 -18 0 -34 -15 -34 -5 0 -9 11 -9 25 0 28 15 34
24 9z m-34 -89 c19 -22 8 -25 -12 -3 -10 10 -14 18 -9 18 5 0 14 -7 21 -15z"/>
<path d="M4602 3679 c-7 -11 -11 -23 -9 -25 7 -7 29 24 25 36 -2 6 -9 1 -16
-11z"/>
<path d="M3555 3660 c4 -14 9 -42 12 -63 3 -20 10 -40 16 -44 7 -4 8 5 4 27
-4 18 -7 40 -7 49 0 10 -7 26 -16 37 -15 18 -15 18 -9 -6z"/>
<path d="M4533 3644 c-3 -8 -16 -20 -29 -25 -26 -9 -33 -39 -9 -39 19 0 65 21
65 31 0 4 -6 10 -12 12 -10 4 -10 6 0 6 14 1 17 31 2 31 -6 0 -13 -7 -17 -16z"/>
<path d="M3515 3570 c3 -5 8 -10 11 -10 2 0 4 5 4 10 0 6 -5 10 -11 10 -5 0
-7 -4 -4 -10z"/>
<path d="M2345 3490 c-7 -23 -25 -26 -43 -8 -9 9 -12 9 -12 0 0 -7 5 -12 10
-12 21 0 9 -41 -15 -52 -25 -11 -31 -31 -19 -62 9 -24 20 -19 34 14 17 41 44
55 64 35 21 -21 11 -39 -30 -55 -54 -21 -63 -38 -35 -62 14 -10 30 -17 36 -14
6 2 29 -11 49 -30 23 -21 42 -31 49 -27 7 5 21 8 31 8 18 0 19 7 17 65 -2 44
-7 68 -17 73 -8 5 -12 12 -9 18 9 14 -43 77 -63 75 -12 -1 -18 8 -20 27 -4 32
-18 36 -27 7z"/>
<path d="M373 3430 c0 -25 2 -35 4 -22 2 12 2 32 0 45 -2 12 -4 2 -4 -23z"/>
<path d="M832 3443 l-64 -4 4 -134 c3 -126 10 -163 26 -139 4 6 14 13 22 16
10 3 13 17 11 51 -6 107 48 165 78 84 8 -19 17 -27 29 -25 14 3 17 15 17 68 1
84 -2 90 -34 88 -14 -1 -54 -3 -89 -5z"/>
<path d="M2485 3397 c-12 -10 -14 -16 -7 -21 15 -9 54 12 47 25 -8 12 -18 11
-40 -4z"/>
<path d="M911 3235 c-45 -51 -56 -104 -38 -179 8 -33 18 -69 22 -79 5 -13 3
-16 -7 -12 -23 9 -61 99 -53 124 5 18 2 21 -24 21 -30 0 -31 -1 -31 -49 0 -30
6 -55 15 -64 11 -11 12 -22 5 -48 -14 -48 -13 -86 1 -72 6 6 26 9 44 6 18 -3
35 -1 38 4 4 6 -5 9 -21 7 -15 -2 -9 2 13 8 54 15 62 28 142 225 25 62 46 82
68 63 15 -12 29 3 39 41 7 33 -9 39 -110 39 -70 0 -73 -1 -103 -35z"/>
<path d="M5836 3135 c-9 -24 -7 -45 3 -45 12 0 22 43 12 53 -5 5 -11 1 -15 -8z"/>
<path d="M2115 3130 c-3 -5 -1 -10 4 -10 6 0 11 5 11 10 0 6 -2 10 -4 10 -3 0
-8 -4 -11 -10z"/>
<path d="M1660 3101 c0 -5 7 -15 17 -22 15 -13 15 -12 4 9 -12 23 -21 28 -21
13z"/>
<path d="M1700 3031 c0 -6 4 -13 10 -16 6 -3 7 1 4 9 -7 18 -14 21 -14 7z"/>
<path d="M5920 3015 c-6 -14 -10 -31 -10 -36 0 -6 -7 -24 -16 -40 -14 -28 -14
-33 0 -54 12 -18 13 -30 6 -47 -5 -13 -14 -41 -19 -63 -8 -31 -25 -52 -75 -95
-72 -60 -72 -61 -92 -140 -19 -78 -19 -78 19 -73 43 5 54 -9 58 -77 l4 -55
-40 -6 c-22 -4 -52 -5 -66 -2 -24 4 -28 1 -35 -28 -4 -19 -8 -42 -9 -51 -1
-20 -15 -37 -15 -20 0 7 -5 11 -12 10 -6 -2 -13 6 -15 17 -3 16 -2 17 6 5 9
-13 11 -13 11 3 0 9 -4 17 -9 17 -5 0 -11 7 -14 14 -4 11 -1 13 10 9 12 -5 15
-2 11 9 -8 20 10 38 31 30 14 -5 14 -4 2 11 -13 16 -15 16 -32 1 -23 -20 -42
-9 -33 19 6 19 5 20 -8 9 -13 -10 -19 -10 -31 2 -8 8 -17 12 -21 9 -3 -4 -6
-2 -6 4 0 6 18 10 39 9 22 0 37 -5 33 -10 -3 -5 3 -6 13 -3 17 7 17 6 0 -20
-18 -27 -18 -28 1 -13 10 8 25 22 32 30 11 13 11 13 6 -1 -3 -9 1 -19 8 -21 8
-4 14 3 14 18 2 23 -20 39 -38 28 -6 -4 -6 2 1 14 15 28 14 37 -4 22 -15 -13
-39 -5 -30 11 4 5 2 9 -4 9 -5 0 -12 -4 -16 -10 -9 -14 -34 0 -28 16 3 8 9 14
15 14 5 0 6 -4 3 -10 -3 -5 -1 -10 4 -10 6 0 11 4 11 10 0 5 7 7 15 4 8 -4 15
-14 15 -23 0 -12 2 -13 8 -3 5 7 16 10 26 6 12 -5 14 -10 6 -19 -8 -9 -6 -14
4 -18 10 -4 13 -1 10 7 -3 7 2 21 11 29 14 15 13 18 -14 32 -28 14 -29 17 -20
45 10 26 13 28 32 19 19 -9 19 -7 -3 12 -22 19 -25 19 -28 4 -2 -10 -10 -14
-19 -11 -8 3 -16 6 -18 6 -2 0 -1 9 2 20 7 25 5 25 54 -1 23 -11 43 -18 46
-15 3 3 -6 11 -21 17 -15 7 -25 18 -22 25 7 17 -45 39 -55 23 -11 -19 -39 -19
-39 -1 0 15 -2 15 -10 2 -12 -18 -13 -30 -2 -29 31 5 38 -5 7 -11 -39 -7 -39
-7 -7 -9 17 0 32 -5 32 -10 0 -4 -11 -6 -24 -4 -18 4 -25 0 -29 -19 -6 -22 -5
-22 8 -4 15 20 15 20 16 0 0 -10 3 -13 6 -6 2 6 9 12 14 12 4 0 6 -7 3 -15 -4
-9 -20 -16 -43 -16 -23 -1 -28 -3 -13 -6 12 -2 22 -6 22 -8 0 -17 -36 -75 -47
-75 -7 0 -13 -4 -13 -10 0 -5 -8 -10 -18 -10 -28 0 -73 -52 -62 -70 7 -12 12
-12 22 -2 9 9 9 12 0 12 -16 0 -16 17 1 17 6 0 20 4 29 8 13 5 15 2 11 -14 -3
-12 -9 -21 -13 -21 -5 0 -6 -10 -3 -21 6 -20 7 -20 20 7 7 16 11 21 9 12 -3
-9 2 -19 9 -22 25 -9 6 -33 -23 -30 -22 3 -21 1 8 -9 58 -21 101 -52 89 -64
-8 -8 -3 -16 17 -27 16 -8 24 -15 18 -16 -6 0 -22 8 -35 19 -36 27 -110 63
-117 56 -4 -3 0 -10 7 -14 7 -5 10 -14 7 -20 -4 -6 -2 -11 3 -11 6 0 11 4 11
10 0 5 7 7 15 4 8 -4 15 -13 15 -21 0 -12 -7 -14 -30 -9 -35 7 -39 -1 -7 -14
18 -8 15 -9 -15 -5 -22 3 -38 1 -38 -5 0 -6 6 -10 14 -10 9 0 12 -7 9 -18 -2
-10 -13 -18 -24 -18 -14 0 -18 5 -13 21 6 20 6 20 -13 0 -21 -21 -14 -35 20
-35 9 0 17 -5 17 -11 0 -21 19 2 25 31 4 19 11 27 20 23 12 -4 12 -7 -1 -20
-8 -9 -12 -18 -9 -21 3 -4 9 -2 13 3 4 6 19 12 34 13 23 3 27 0 21 -15 -4 -14
-3 -15 6 -7 14 13 54 7 45 -7 -3 -5 -10 -7 -15 -4 -5 3 -6 -1 -2 -11 5 -14 3
-15 -15 -5 -18 10 -21 9 -16 -4 4 -8 10 -15 15 -15 4 0 6 -6 3 -13 -2 -7 7
-26 21 -43 14 -16 25 -32 25 -36 0 -5 7 -8 15 -8 8 0 15 -5 15 -10 0 -15 46
-34 64 -27 12 5 12 11 -5 44 -10 20 -19 43 -19 50 0 12 -13 17 -33 14 -5 -1
-18 7 -31 16 -24 19 -25 46 -1 37 7 -3 16 0 21 7 5 8 2 11 -8 6 -11 -4 -17 2
-21 19 -2 13 0 27 5 30 6 4 16 20 24 38 l13 31 -2 -27 c-1 -16 -5 -28 -9 -28
-5 0 9 -16 31 -35 41 -38 68 -44 77 -20 6 14 8 13 19 -1 9 -13 32 -18 97 -22
47 -2 88 0 91 5 3 5 -1 50 -8 101 -14 95 -14 99 15 167 18 41 31 170 32 322 1
64 -3 87 -16 102 -14 16 -15 20 -2 30 18 15 16 95 -2 113 -7 7 -12 33 -12 59
0 55 -15 72 -30 34z m-270 -397 c0 -6 -7 -7 -16 -4 -9 3 -18 6 -20 6 -3 0 -3
4 1 10 7 11 35 2 35 -12z m-22 -81 c2 -12 -3 -17 -17 -17 -12 0 -21 6 -21 13
0 31 32 34 38 4z m7 -39 c40 -18 29 -29 -12 -11 -21 8 -40 17 -42 19 -9 9 30
3 54 -8z m-115 -129 c0 -4 -7 -6 -15 -3 -8 4 -15 10 -15 15 0 4 7 6 15 3 8 -4
15 -10 15 -15z m45 -9 c8 -13 -5 -13 -25 0 -13 8 -13 10 2 10 9 0 20 -4 23
-10z m-7 -25 c13 -12 -5 -12 -33 0 l-30 14 29 -4 c16 -2 31 -7 34 -10z m32 -9
c0 -3 -4 -8 -10 -11 -5 -3 -10 -1 -10 4 0 6 5 11 10 11 6 0 10 -2 10 -4z m-40
-25 c0 -13 -12 -20 -25 -14 -8 2 -11 11 -9 18 6 14 34 10 34 -4z m31 -26 c7
19 8 18 8 -3 1 -29 -24 -25 -25 4 -1 17 -1 17 4 -1 l4 -20 9 20z m39 -66 c0
-4 -7 -6 -15 -3 -8 4 -15 10 -15 15 0 4 7 6 15 3 8 -4 15 -10 15 -15z m-89
-22 c-10 -9 -11 -8 -5 6 3 10 9 15 12 12 3 -3 0 -11 -7 -18z m43 -18 c19 3 26
0 26 -10 0 -8 -5 -7 -15 1 -14 12 -15 10 -11 -13 4 -26 4 -26 -20 -11 -27 18
-32 29 -9 20 8 -3 15 -1 15 4 0 6 -5 10 -11 10 -5 0 -7 5 -3 11 5 8 9 8 14 -1
4 -6 10 -11 14 -11z m44 -141 c13 -13 17 -58 4 -58 -4 0 -13 9 -19 20 -11 17
-10 19 5 14 16 -5 16 -5 0 9 -10 8 -18 17 -18 21 0 10 15 7 28 -6z"/>
<path d="M5680 2914 c0 -8 5 -12 10 -9 6 3 10 10 10 16 0 5 -4 9 -10 9 -5 0
-10 -7 -10 -16z"/>
<path d="M5636 2884 c-9 -23 -2 -28 13 -10 7 8 8 17 3 20 -6 3 -13 -1 -16 -10z"/>
<path d="M4110 2815 c4 -20 12 -40 16 -43 10 -10 -5 61 -15 71 -6 6 -6 -6 -1
-28z"/>
<path d="M5651 2824 c0 -11 3 -14 6 -6 3 7 2 16 -1 19 -3 4 -6 -2 -5 -13z"/>
<path d="M2585 2780 c4 -6 11 -8 16 -5 14 9 11 15 -7 15 -8 0 -12 -5 -9 -10z"/>
<path d="M5671 2759 c-14 -39 -14 -57 -2 -43 10 10 25 74 18 74 -3 0 -10 -14
-16 -31z"/>
<path d="M5610 2753 c0 -16 -5 -35 -10 -43 -7 -11 -10 -6 -10 20 -1 33 -2 34
-11 10 -12 -29 -4 -70 14 -71 6 0 19 -2 28 -4 14 -2 16 5 14 46 -1 27 2 49 7
49 5 0 6 5 3 10 -13 21 -35 10 -35 -17z"/>
<path d="M3352 2601 c-22 -16 -43 -35 -47 -41 -12 -19 36 -1 63 23 19 18 34
21 85 19 57 -2 60 -1 43 13 -33 25 -97 19 -144 -14z"/>
<path d="M5687 2609 c7 -7 15 -10 18 -7 3 3 -2 9 -12 12 -14 6 -15 5 -6 -5z"/>
<path d="M3410 2565 c0 -9 9 -15 23 -15 12 0 33 -3 47 -6 24 -6 23 -5 -5 15
-35 24 -65 27 -65 6z"/>
<path d="M5653 2528 c0 -13 1 -17 4 -10 7 19 23 14 17 -5 -5 -15 -4 -15 6 1
10 15 9 20 -1 27 -21 13 -25 11 -26 -13z"/>
<path d="M175 2459 c-4 -6 -5 -12 -2 -15 2 -3 7 2 10 11 7 17 1 20 -8 4z"/>
<path d="M0 2298 l0 -151 23 19 c42 36 54 49 50 60 -2 6 8 19 22 28 15 10 33
32 41 49 9 18 21 43 29 57 12 21 12 26 -1 33 -9 5 -13 17 -10 30 3 12 3 16 0
10 -8 -18 -42 -16 -60 2 -9 8 -33 15 -55 15 l-39 0 0 -152z"/>
<path d="M4255 2338 c3 -13 9 -33 12 -45 8 -33 21 -28 29 11 7 41 0 56 -28 56
-16 0 -19 -4 -13 -22z"/>
<path d="M5330 2326 c25 -14 40 -13 40 5 0 5 -15 9 -32 9 l-33 -1 25 -13z"/>
<path d="M5375 2300 c-3 -5 -1 -10 4 -10 6 0 11 5 11 10 0 6 -2 10 -4 10 -3 0
-8 -4 -11 -10z"/>
<path d="M5631 2301 c-9 -6 -11 -14 -4 -26 9 -15 11 -14 15 9 3 14 5 26 4 26
0 0 -7 -4 -15 -9z"/>
<path d="M5362 2260 c-14 -23 -17 -59 -3 -44 8 9 24 64 19 64 -2 0 -9 -9 -16
-20z"/>
<path d="M5500 2255 c0 -2 14 -11 30 -20 17 -9 30 -12 30 -7 0 5 -11 14 -25
20 -28 13 -35 14 -35 7z"/>
<path d="M5325 2239 c-4 -6 -5 -12 -2 -15 2 -3 7 2 10 11 7 17 1 20 -8 4z"/>
<path d="M5337 2163 c-4 -3 -7 -16 -6 -27 0 -19 1 -19 10 3 10 24 8 36 -4 24z"/>
<path d="M5355 2074 c-16 -8 -22 -12 -13 -10 10 3 22 -2 28 -12 8 -13 10 -13
8 -2 -2 8 2 16 7 17 6 0 9 -3 7 -9 -1 -5 2 -7 8 -3 8 5 7 11 -1 21 -6 8 -12
14 -13 14 0 -1 -14 -8 -31 -16z"/>
<path d="M5415 2046 c-26 -11 -27 -13 -10 -17 12 -3 27 2 38 13 20 21 13 22
-28 4z"/>
<path d="M5517 2021 c-18 -7 -18 -8 -1 -21 10 -8 15 -10 11 -3 -4 7 0 13 10
15 10 2 14 6 8 9 -5 4 -18 3 -28 0z"/>
<path d="M5860 1978 c-12 -22 -12 -22 6 -6 10 10 15 20 12 24 -4 3 -12 -5 -18
-18z"/>
<path d="M5540 1970 c0 -6 12 -10 27 -10 29 0 24 12 -7 17 -11 2 -20 -2 -20
-7z"/>
<path d="M5370 1960 c-8 -5 -12 -11 -9 -14 2 -3 11 -1 19 4 8 5 12 11 9 14 -2
3 -11 1 -19 -4z"/>
<path d="M5424 1945 c-4 -8 -10 -12 -15 -9 -5 3 -9 3 -9 0 0 -3 9 -10 19 -16
14 -7 22 -7 27 2 5 7 3 8 -6 3 -10 -6 -12 -3 -8 13 7 25 0 30 -8 7z"/>
<path d="M5490 1940 c-13 -8 -13 -10 2 -10 9 0 20 5 23 10 8 13 -5 13 -25 0z"/>
<path d="M5527 1913 c-4 -3 -7 -11 -7 -17 0 -6 5 -5 12 2 6 6 9 14 7 17 -3 3
-9 2 -12 -2z"/>
<path d="M5387 1890 c-9 -11 -12 -20 -7 -20 6 0 9 -10 9 -22 -1 -17 -2 -19 -6
-5 -7 27 -26 20 -21 -8 3 -13 2 -22 -3 -20 -4 3 -10 1 -14 -5 -3 -5 -15 -10
-26 -10 -22 0 -23 -4 -9 -31 13 -23 36 -25 56 -4 9 9 11 15 4 15 -6 0 -9 4 -5
10 3 5 13 6 22 3 12 -5 15 -2 10 10 -3 9 -1 19 4 23 6 3 9 15 6 25 -3 11 -1
19 4 19 4 0 5 7 2 17 -5 12 -3 14 7 8 9 -5 11 -4 6 3 -10 17 -19 15 -39 -8z"/>
<path d="M1953 1873 c9 -2 23 -2 30 0 6 3 -1 5 -18 5 -16 0 -22 -2 -12 -5z"/>
<path d="M5283 1841 c4 -29 17 -39 17 -13 0 11 -5 24 -10 27 -6 4 -9 -2 -7
-14z"/>
<path d="M2033 1823 c-34 -7 -38 -33 -5 -33 27 0 52 15 52 32 0 8 -9 8 -47 1z"/>
<path d="M5570 1770 c-13 -8 -12 -10 3 -10 9 0 17 5 17 10 0 12 -1 12 -20 0z"/>
<path d="M0 1543 l1 -208 24 30 c14 17 25 33 25 38 0 4 10 28 21 53 29 60 21
125 -26 221 -20 40 -38 73 -40 73 -3 0 -5 -93 -5 -207z"/>
<path d="M1950 1725 c-14 -16 -5 -35 16 -35 15 0 20 35 5 44 -5 3 -14 -1 -21
-9z"/>
<path d="M5530 1661 c0 -5 9 -7 20 -4 11 3 20 7 20 9 0 2 -9 4 -20 4 -11 0
-20 -4 -20 -9z"/>
<path d="M5550 1639 c0 -5 5 -7 10 -4 6 3 10 8 10 11 0 2 -4 4 -10 4 -5 0 -10
-5 -10 -11z"/>
<path d="M5568 1593 c6 -2 18 -2 25 0 6 3 1 5 -13 5 -14 0 -19 -2 -12 -5z"/>
<path d="M108 1444 c-5 -4 -8 -21 -8 -38 0 -19 -19 -64 -50 -116 -48 -82 -50
-88 -50 -160 l1 -75 19 35 c11 19 31 73 46 120 14 47 32 103 40 126 15 40 16
123 2 108z"/>
<path d="M980 1290 c8 -5 42 -9 75 -9 43 0 54 3 40 9 -29 12 -134 12 -115 0z"/>
<path d="M1008 1263 c12 -2 30 -2 40 0 9 3 -1 5 -23 4 -22 0 -30 -2 -17 -4z"/>
<path d="M106 1183 c-10 -32 -38 -98 -62 -148 l-45 -90 1 -230 0 -230 70 3
c54 3 70 1 70 -10 0 -37 -39 -46 -102 -24 l-38 14 0 -234 0 -234 285 0 285 0
0 44 c0 60 -36 261 -58 321 -19 53 -46 70 -57 36 -10 -33 -81 -118 -99 -118
-11 0 -13 4 -6 12 5 7 7 15 3 19 -4 4 1 4 12 1 11 -4 0 12 -27 37 -41 38 -45
46 -37 68 6 14 19 34 29 45 17 19 60 130 60 157 0 7 -12 37 -27 66 l-27 52
-19 -57 c-24 -76 -41 -93 -88 -93 -45 0 -44 8 9 82 40 57 59 157 43 229 -5 23
-8 46 -5 50 2 4 -5 5 -16 2 -20 -5 -40 -55 -40 -101 0 -31 -29 -92 -47 -99 -7
-3 -23 6 -34 21 -11 14 -29 26 -40 26 -24 0 -24 14 0 54 28 45 71 179 71 221
0 20 -7 49 -15 65 -8 16 -19 46 -23 66 l-7 36 -19 -59z m96 -650 c-17 -27 -20
-27 -47 -7 -24 18 -9 32 34 30 27 -1 27 -2 13 -23z m81 -170 c12 -11 -15 -33
-41 -33 l-25 0 23 20 c25 21 33 24 43 13z"/>
<path d="M4733 1225 c0 -12 15 -15 76 -14 66 1 71 2 36 9 -22 5 -52 6 -67 3
-17 -3 -28 -1 -28 6 0 6 -4 11 -8 11 -5 0 -9 -7 -9 -15z"/>
<path d="M4696 1207 c-5 -15 -6 -31 -2 -34 11 -11 18 5 14 34 l-4 28 -8 -28z"/>
<path d="M198 1065 c-7 -8 18 -59 37 -75 21 -17 19 3 -4 31 -10 13 -20 30 -22
37 -3 7 -7 10 -11 7z"/>
<path d="M3310 870 c0 -133 1 -140 20 -140 19 0 20 7 20 128 0 122 -6 152 -32
152 -4 0 -8 -63 -8 -140z"/>
<path d="M522 848 c-15 -15 -16 -41 0 -36 6 2 18 14 26 26 12 19 12 22 0 22
-8 0 -19 -5 -26 -12z"/>
<path d="M464 778 c-12 -18 -15 -104 -6 -129 7 -18 12 -9 25 47 10 38 17 75
17 82 0 16 -27 16 -36 0z"/>
<path d="M3025 610 c-16 -7 -17 -9 -3 -9 9 -1 20 4 23 9 7 11 7 11 -20 0z"/>
<path d="M3340 520 c0 -5 5 -10 11 -10 5 0 7 5 4 10 -3 6 -8 10 -11 10 -2 0
-4 -4 -4 -10z"/>
<path d="M1014 437 c-67 -35 -124 -79 -124 -97 0 -6 -6 -8 -12 -4 -10 5 -10 4
-2 -5 14 -15 124 27 184 70 22 16 44 29 49 29 5 0 11 7 15 15 3 9 0 15 -8 15
-8 0 -20 2 -28 4 -7 2 -40 -10 -74 -27z"/>
<path d="M800 241 c-5 -11 -10 -27 -10 -37 0 -13 4 -11 20 9 11 14 20 30 20
36 0 18 -18 13 -30 -8z"/>
<path d="M2990 59 c-6 -11 -10 -25 -8 -30 2 -5 8 4 15 21 13 34 9 40 -7 9z"/>
</g>
</svg>
